<svg width="266" height="587" viewBox="0 0 266 587" fill="none" xmlns="http://www.w3.org/2000/svg">
<path opacity="0.2" fill-rule="evenodd" clip-rule="evenodd" d="M3.25 84V0H4.75V84C4.75 138.814 49.1857 183.25 104 183.25H173C224.224 183.25 265.75 224.776 265.75 276C265.75 327.224 224.224 368.75 173 368.75H104C49.1857 368.75 4.75 413.186 4.75 468V583H3.25V468C3.25 412.357 48.3573 367.25 104 367.25H173C223.396 367.25 264.25 326.396 264.25 276C264.25 225.604 223.396 184.75 173 184.75H104C48.3573 184.75 3.25 139.643 3.25 84Z" fill="black"/>
<path fill-rule="evenodd" clip-rule="evenodd" d="M171 367.25C222.501 367.25 264.25 325.501 264.25 274H265.75C265.75 326.329 223.329 368.75 171 368.75H104C49.1857 368.75 4.75 413.186 4.75 468V579.07C6.60065 579.421 8 581.047 8 583C8 585.209 6.20914 587 4 587C1.79086 587 0 585.209 0 583C0 581.047 1.39935 579.421 3.25 579.07V468C3.25 412.357 48.3573 367.25 104 367.25H171Z" fill="black"/>
</svg>
