<svg width="263" height="583" viewBox="0 0 263 583" fill="none" xmlns="http://www.w3.org/2000/svg">
<path opacity="0.2" fill-rule="evenodd" clip-rule="evenodd" d="M262.75 84V0H261.25V84C261.25 138.814 216.814 183.25 162 183.25H93C41.7756 183.25 0.25 224.776 0.25 276C0.25 327.224 41.7756 368.75 93 368.75H162C216.814 368.75 261.25 413.186 261.25 468V583H262.75V468C262.75 412.357 217.643 367.25 162 367.25H93C42.604 367.25 1.75 326.396 1.75 276C1.75 225.604 42.604 184.75 93 184.75H162C217.643 184.75 262.75 139.643 262.75 84Z" fill="black"/>
<path fill-rule="evenodd" clip-rule="evenodd" d="M95 367.25C43.4995 367.25 1.75 325.501 1.75 274H0.25C0.25 326.329 42.671 368.75 95 368.75H162C216.814 368.75 261.25 413.186 261.25 468V583H262.75V468C262.75 412.357 217.643 367.25 162 367.25H95Z" fill="black"/>
</svg>
