<svg width="163" height="165" viewBox="0 0 163 165" fill="none" xmlns="http://www.w3.org/2000/svg">
<path fill-rule="evenodd" clip-rule="evenodd" d="M0.250002 35.5L0.25 0L1.75 -6.55671e-08L1.75 35.5C1.75 57.1772 19.3228 74.75 41 74.75L118.5 74.75C141.006 74.75 159.25 92.9944 159.25 115.5L159.25 157.07C161.101 157.421 162.5 159.047 162.5 161C162.5 163.209 160.709 165 158.5 165C156.291 165 154.5 163.209 154.5 161C154.5 159.047 155.899 157.421 157.75 157.07L157.75 115.5C157.75 93.8228 140.177 76.25 118.5 76.25L41 76.25C18.4944 76.25 0.250004 58.0056 0.250002 35.5Z" fill="black"/>
</svg>
