<svg width="47" height="46" viewBox="0 0 47 46" fill="none" xmlns="http://www.w3.org/2000/svg">
<path d="M41.0002 0V4H35.0002C34.6893 3.99986 34.3828 4.07216 34.1048 4.21117C33.8268 4.35017 33.585 4.55205 33.3986 4.80078L28.0002 12H23.0002C22.4698 12.0001 21.9611 12.2109 21.5861 12.5859L16.172 18H11.0002C10.6053 18 10.2193 18.1169 9.89079 18.3359L4.3947 22H3.00016C2.73514 21.9963 2.47202 22.0452 2.22608 22.144C1.98014 22.2429 1.7563 22.3896 1.56756 22.5757C1.37882 22.7618 1.22895 22.9835 1.12665 23.228C1.02436 23.4725 0.97168 23.7349 0.97168 24C0.97168 24.265 1.02436 24.5275 1.12665 24.772C1.22895 25.0165 1.37882 25.2382 1.56756 25.4243C1.7563 25.6104 1.98014 25.7571 2.22608 25.856C2.47202 25.9548 2.73514 26.0037 3.00016 26H5.00016C5.39501 26 5.78101 25.8831 6.10954 25.6641L11.6056 22H17.0002C17.5306 21.9999 18.0392 21.7891 18.4142 21.4141L23.8283 16H29.0002C29.311 16.0001 29.6176 15.9278 29.8956 15.7888C30.1736 15.6498 30.4153 15.448 30.6017 15.1992L36.0002 8H41.0002V12L47.0002 6L41.0002 0ZM39.0002 16C37.8962 16 37.0002 16.896 37.0002 18V46H45.0002V18C45.0002 16.896 44.1042 16 43.0002 16H39.0002ZM27.0002 22C25.8962 22 25.0002 22.896 25.0002 24V46H33.0002V24C33.0002 22.896 32.1042 22 31.0002 22H27.0002ZM15.0002 28C13.8962 28 13.0002 28.896 13.0002 30V46H21.0002V30C21.0002 28.896 20.1042 28 19.0002 28H15.0002ZM3.00016 34C1.89616 34 1.00016 34.896 1.00016 36V46H9.00016V36C9.00016 34.896 8.10416 34 7.00016 34H3.00016Z" fill="#0D0D0D"/>
</svg>
