<svg width="189" height="29" viewBox="0 0 189 29" fill="none" xmlns="http://www.w3.org/2000/svg">
<path d="M178.393 14.732H178.703C179.736 13.12 181.286 12.314 183.353 12.314C185.254 12.314 186.67 12.9236 187.6 14.143C188.53 15.3623 188.995 16.964 188.995 18.948V28H184.345V19.475C184.345 18.6483 184.148 17.9766 183.756 17.46C183.363 16.9226 182.753 16.654 181.927 16.654C180.873 16.654 180.067 17.057 179.509 17.863C178.971 18.669 178.703 19.723 178.703 21.025V28H174.053V12.81H178.393V14.732Z" fill="#0D0D0D"/>
<path d="M164.808 12.314C165.986 12.314 167.071 12.5206 168.063 12.934C169.076 13.3266 169.944 13.8846 170.667 14.608C171.411 15.3106 171.979 16.158 172.372 17.15C172.785 18.142 172.992 19.227 172.992 20.405C172.992 21.583 172.785 22.668 172.372 23.66C171.979 24.652 171.411 25.5096 170.667 26.233C169.944 26.9356 169.076 27.4936 168.063 27.907C167.071 28.2996 165.986 28.496 164.808 28.496C163.63 28.496 162.535 28.2996 161.522 27.907C160.53 27.4936 159.662 26.9356 158.918 26.233C158.195 25.5096 157.626 24.652 157.213 23.66C156.82 22.668 156.624 21.583 156.624 20.405C156.624 19.227 156.82 18.142 157.213 17.15C157.626 16.158 158.195 15.3106 158.918 14.608C159.662 13.8846 160.53 13.3266 161.522 12.934C162.535 12.5206 163.63 12.314 164.808 12.314ZM164.808 24.156C165.283 24.156 165.728 24.0733 166.141 23.908C166.575 23.722 166.957 23.474 167.288 23.164C167.619 22.8333 167.877 22.4406 168.063 21.986C168.249 21.5106 168.342 20.9836 168.342 20.405C168.342 19.8263 168.249 19.3096 168.063 18.855C167.877 18.4003 167.619 18.0076 167.288 17.677C166.957 17.3463 166.575 17.0983 166.141 16.933C165.728 16.747 165.283 16.654 164.808 16.654C164.333 16.654 163.878 16.747 163.444 16.933C163.031 17.0983 162.659 17.3463 162.328 17.677C161.997 18.0076 161.739 18.4003 161.553 18.855C161.367 19.3096 161.274 19.8263 161.274 20.405C161.274 20.9836 161.367 21.5106 161.553 21.986C161.739 22.4406 161.997 22.8333 162.328 23.164C162.659 23.474 163.031 23.722 163.444 23.908C163.878 24.0733 164.333 24.156 164.808 24.156Z" fill="#0D0D0D"/>
<path d="M152.828 11.136C152.415 11.136 152.032 11.0637 151.681 10.919C151.33 10.7537 151.02 10.547 150.751 10.299C150.503 10.0303 150.296 9.72032 150.131 9.36898C149.986 9.01765 149.914 8.63532 149.914 8.22198C149.914 7.82932 149.986 7.45732 150.131 7.10598C150.296 6.73398 150.503 6.42398 150.751 6.17598C151.02 5.90732 151.33 5.70065 151.681 5.55598C152.032 5.39065 152.415 5.30798 152.828 5.30798C153.221 5.30798 153.593 5.39065 153.944 5.55598C154.316 5.70065 154.626 5.90732 154.874 6.17598C155.143 6.42398 155.349 6.73398 155.494 7.10598C155.659 7.45732 155.742 7.82932 155.742 8.22198C155.742 8.63532 155.659 9.01765 155.494 9.36898C155.349 9.72032 155.143 10.0303 154.874 10.299C154.626 10.547 154.316 10.7537 153.944 10.919C153.593 11.0637 153.221 11.136 152.828 11.136ZM150.503 28V12.81H155.153V28H150.503Z" fill="#0D0D0D"/>
<path d="M142.499 28.496C141.445 28.496 140.515 28.372 139.709 28.124C138.903 27.876 138.2 27.5556 137.601 27.163C137.022 26.7496 136.537 26.2846 136.144 25.768C135.751 25.2306 135.452 24.6933 135.245 24.156L139.43 22.389C139.719 23.0916 140.122 23.6083 140.639 23.939C141.156 24.249 141.776 24.404 142.499 24.404C143.119 24.404 143.594 24.311 143.925 24.125C144.276 23.9183 144.452 23.66 144.452 23.35C144.452 22.9986 144.287 22.73 143.956 22.544C143.625 22.3373 143.098 22.1513 142.375 21.986L140.298 21.552C139.802 21.4486 139.296 21.2833 138.779 21.056C138.262 20.8286 137.787 20.529 137.353 20.157C136.919 19.785 136.568 19.351 136.299 18.855C136.03 18.3383 135.896 17.7493 135.896 17.088C135.896 16.3646 136.051 15.7136 136.361 15.135C136.692 14.5356 137.136 14.0293 137.694 13.616C138.252 13.2026 138.913 12.8823 139.678 12.655C140.443 12.4276 141.28 12.314 142.189 12.314C143.76 12.314 145.113 12.593 146.25 13.151C147.387 13.6883 148.244 14.5976 148.823 15.879L144.824 17.522C144.555 16.9846 144.173 16.592 143.677 16.344C143.202 16.096 142.716 15.972 142.22 15.972C141.683 15.972 141.249 16.065 140.918 16.251C140.587 16.437 140.422 16.6643 140.422 16.933C140.422 17.2223 140.587 17.46 140.918 17.646C141.269 17.8113 141.693 17.956 142.189 18.08L144.545 18.638C146.095 19.01 147.252 19.6093 148.017 20.436C148.782 21.2626 149.164 22.234 149.164 23.35C149.164 24.032 148.999 24.683 148.668 25.303C148.358 25.923 147.903 26.4706 147.304 26.946C146.725 27.4213 146.023 27.7933 145.196 28.062C144.39 28.3513 143.491 28.496 142.499 28.496Z" fill="#0D0D0D"/>
<path d="M131.423 11.136C131.009 11.136 130.627 11.0637 130.276 10.919C129.924 10.7537 129.614 10.547 129.346 10.299C129.098 10.0303 128.891 9.72032 128.726 9.36898C128.581 9.01765 128.509 8.63532 128.509 8.22198C128.509 7.82932 128.581 7.45732 128.726 7.10598C128.891 6.73398 129.098 6.42398 129.346 6.17598C129.614 5.90732 129.924 5.70065 130.276 5.55598C130.627 5.39065 131.009 5.30798 131.423 5.30798C131.815 5.30798 132.187 5.39065 132.539 5.55598C132.911 5.70065 133.221 5.90732 133.469 6.17598C133.737 6.42398 133.944 6.73398 134.089 7.10598C134.254 7.45732 134.337 7.82932 134.337 8.22198C134.337 8.63532 134.254 9.01765 134.089 9.36898C133.944 9.72032 133.737 10.0303 133.469 10.299C133.221 10.547 132.911 10.7537 132.539 10.919C132.187 11.0637 131.815 11.136 131.423 11.136ZM129.098 28V12.81H133.748V28H129.098Z" fill="#0D0D0D"/>
<path d="M107.504 5.80399H112.712L116.928 18.018L117.765 21.118H118.075L118.974 18.018L123.376 5.80399H128.584L120.462 28H115.378L107.504 5.80399Z" fill="#0D0D0D"/>
<path d="M93.3932 28H88.7431V16.716H86.0771V12.81H88.7431V11.694C88.7431 9.6893 89.3011 8.1703 90.4171 7.13697C91.5331 6.08297 93.0005 5.55597 94.8191 5.55597C95.1291 5.55597 95.3771 5.5663 95.5631 5.58697C95.7698 5.58697 95.9558 5.60764 96.1212 5.64897V10.082C96.0178 10.0406 95.8835 10.0096 95.7182 9.98897C95.5528 9.9683 95.3565 9.95797 95.1292 9.95797C94.5712 9.95797 94.1371 10.1336 93.8271 10.485C93.5378 10.8363 93.3932 11.3116 93.3932 11.911V12.81H98.6012V8.15997H103.251V12.81H107.002V16.716H103.251V21.831C103.251 22.1616 103.292 22.4716 103.375 22.761C103.458 23.0296 103.602 23.257 103.809 23.443C104.119 23.7116 104.522 23.846 105.018 23.846C105.349 23.846 105.628 23.8046 105.855 23.722C106.082 23.6393 106.279 23.536 106.444 23.412L107.746 27.442C107.209 27.69 106.63 27.8863 106.01 28.031C105.39 28.1756 104.729 28.248 104.026 28.248C102.393 28.248 101.102 27.7726 100.151 26.822C99.6551 26.326 99.2728 25.7163 99.0042 24.993C98.7355 24.249 98.6012 23.4326 98.6012 22.544V16.716H93.3932V28Z" fill="#0D0D0D"/>
<path d="M77.976 12.314C79.154 12.314 80.239 12.5206 81.231 12.934C82.2437 13.3266 83.1117 13.8846 83.835 14.608C84.579 15.3106 85.1473 16.158 85.54 17.15C85.9533 18.142 86.16 19.227 86.16 20.405C86.16 21.583 85.9533 22.668 85.54 23.66C85.1473 24.652 84.579 25.5096 83.835 26.233C83.1117 26.9356 82.2437 27.4936 81.231 27.907C80.239 28.2996 79.154 28.496 77.976 28.496C76.798 28.496 75.7027 28.2996 74.69 27.907C73.698 27.4936 72.83 26.9356 72.086 26.233C71.3627 25.5096 70.7943 24.652 70.381 23.66C69.9883 22.668 69.792 21.583 69.792 20.405C69.792 19.227 69.9883 18.142 70.381 17.15C70.7943 16.158 71.3627 15.3106 72.086 14.608C72.83 13.8846 73.698 13.3266 74.69 12.934C75.7027 12.5206 76.798 12.314 77.976 12.314ZM77.976 24.156C78.4513 24.156 78.8957 24.0733 79.309 23.908C79.743 23.722 80.1253 23.474 80.456 23.164C80.7867 22.8333 81.045 22.4406 81.231 21.986C81.417 21.5106 81.51 20.9836 81.51 20.405C81.51 19.8263 81.417 19.3096 81.231 18.855C81.045 18.4003 80.7867 18.0076 80.456 17.677C80.1253 17.3463 79.743 17.0983 79.309 16.933C78.8957 16.747 78.4513 16.654 77.976 16.654C77.5007 16.654 77.046 16.747 76.612 16.933C76.1987 17.0983 75.8267 17.3463 75.496 17.677C75.1653 18.0076 74.907 18.4003 74.721 18.855C74.535 19.3096 74.442 19.8263 74.442 20.405C74.442 20.9836 74.535 21.5106 74.721 21.986C74.907 22.4406 75.1653 22.8333 75.496 23.164C75.8267 23.474 76.1987 23.722 76.612 23.908C77.046 24.0733 77.5007 24.156 77.976 24.156Z" fill="#0D0D0D"/>
<path d="M61.2691 28.496C59.2025 28.496 57.4148 27.9483 55.9061 26.853C54.4181 25.737 53.3641 24.1457 52.7441 22.079L57.3011 20.281C57.5698 21.335 58.0141 22.203 58.6341 22.885C59.2541 23.567 60.1325 23.908 61.2691 23.908C61.6411 23.908 61.9925 23.8667 62.3231 23.784C62.6745 23.7013 62.9741 23.5773 63.2221 23.412C63.4908 23.226 63.7078 22.9987 63.8731 22.73C64.0385 22.4613 64.1211 22.1513 64.1211 21.8C64.1211 21.4487 64.0488 21.1283 63.9041 20.839C63.7801 20.529 63.5631 20.25 63.2531 20.002C62.9431 19.7333 62.5298 19.475 62.0131 19.227C61.4965 18.9583 60.8455 18.6793 60.0601 18.39L58.6961 17.894C58.1175 17.6873 57.5181 17.4083 56.8981 17.057C56.2988 16.685 55.7511 16.2407 55.2551 15.724C54.7591 15.2073 54.3561 14.6183 54.0461 13.957C53.7361 13.275 53.5811 12.5207 53.5811 11.694C53.5811 10.8053 53.7568 9.96832 54.1081 9.18298C54.4595 8.39765 54.9555 7.72598 55.5961 7.16798C56.2368 6.58932 57.0118 6.13465 57.9211 5.80398C58.8305 5.47332 59.8328 5.30798 60.9281 5.30798C62.0855 5.30798 63.0775 5.46298 63.9041 5.77298C64.7308 6.06232 65.4335 6.44465 66.0121 6.91998C66.5908 7.37465 67.0455 7.89132 67.3761 8.46998C67.7275 9.04865 67.9961 9.60665 68.1821 10.144L63.9971 11.911C63.7698 11.2497 63.4081 10.7227 62.9121 10.33C62.4161 9.91665 61.7755 9.70998 60.9901 9.70998C60.1635 9.70998 59.5021 9.88565 59.0061 10.237C58.5308 10.5677 58.2931 11.0017 58.2931 11.539C58.2931 12.097 58.5411 12.593 59.0371 13.027C59.5331 13.461 60.4115 13.895 61.6721 14.329L63.0361 14.794C64.9168 15.4347 66.3738 16.2923 67.4071 17.367C68.4405 18.4417 68.9571 19.8883 68.9571 21.707C68.9571 22.8643 68.7195 23.8667 68.2441 24.714C67.7895 25.5613 67.1901 26.264 66.4461 26.822C65.7228 27.38 64.8961 27.7933 63.9661 28.062C63.0568 28.3513 62.1578 28.496 61.2691 28.496Z" fill="#0D0D0D"/>
<path d="M27 5C16.298 5 9.38519 16.0534 9.26016 16.2547C9.09186 16.4667 9.00018 16.7293 9 17C9.00021 17.2322 9.06779 17.4593 9.19453 17.6539C9.19609 17.6563 9.19765 17.6586 9.19922 17.6609C9.21985 17.7035 15.0226 29 27 29C38.9266 29 44.7208 17.8145 44.7914 17.6773C44.7962 17.6696 44.8009 17.6618 44.8055 17.6539C44.9322 17.4593 44.9998 17.2322 45 17C45 16.7304 44.9091 16.4687 44.7422 16.257L44.7398 16.2547C44.6148 16.0534 37.702 5 27 5ZM27 8.6C31.6392 8.6 35.4 12.3608 35.4 17C35.4 21.6392 31.6392 25.4 27 25.4C22.3608 25.4 18.6 21.6392 18.6 17C18.6 12.3608 22.3608 8.6 27 8.6ZM27 13.4C26.0452 13.4 25.1295 13.7793 24.4544 14.4544C23.7793 15.1295 23.4 16.0452 23.4 17C23.4 17.9548 23.7793 18.8705 24.4544 19.5456C25.1295 20.2207 26.0452 20.6 27 20.6C27.9548 20.6 28.8705 20.2207 29.5456 19.5456C30.2207 18.8705 30.6 17.9548 30.6 17C30.6 16.0452 30.2207 15.1295 29.5456 14.4544C28.8705 13.7793 27.9548 13.4 27 13.4Z" fill="black"/>
<path d="M5.61509 0.371748C5.72435 -0.0174295 6.27606 -0.01743 6.38531 0.371747L7.47391 4.24929C7.51162 4.38361 7.61658 4.48858 7.7509 4.52629L11.6284 5.61488C12.0176 5.72414 12.0176 6.27584 11.6284 6.3851L7.7509 7.47369C7.61658 7.5114 7.51162 7.61637 7.47391 7.75069L6.38531 11.6282C6.27606 12.0174 5.72435 12.0174 5.61509 11.6282L4.5265 7.75069C4.48879 7.61637 4.38382 7.5114 4.2495 7.47369L0.371961 6.3851C-0.0172159 6.27584 -0.0172164 5.72414 0.371961 5.61488L4.2495 4.52629C4.38382 4.48858 4.48879 4.38361 4.5265 4.24929L5.61509 0.371748Z" fill="#02D700"/>
</svg>
