<svg width="19" height="18" viewBox="0 0 19 18" fill="none" xmlns="http://www.w3.org/2000/svg">
<path fill-rule="evenodd" clip-rule="evenodd" d="M1.23701 7.8879C6.06722 5.62992 9.28816 4.1413 10.8997 3.42214C15.5011 1.36867 16.4573 1.01193 17.0804 1.00012C17.2175 0.997554 17.524 1.03401 17.7225 1.20686C18.017 1.46325 18.0186 2.01978 17.986 2.38811C17.7366 5.19922 16.6577 12.021 16.1087 15.1694C15.8764 16.5017 15.4191 16.9484 14.9764 16.9921C14.0142 17.0871 13.2836 16.3098 12.3516 15.6544C10.8934 14.6287 10.0695 13.9902 8.65394 12.9894C7.01807 11.8327 8.07856 11.197 9.01083 10.158C9.25483 9.88617 13.4943 5.74874 13.5763 5.37339C13.5866 5.32644 13.5961 5.15144 13.4992 5.05908C13.4023 4.96672 13.2594 4.99825 13.1562 5.02339C13.0099 5.05901 10.6803 6.71117 6.16729 9.97978C5.50601 10.467 4.90706 10.7044 4.37045 10.6919C3.77881 10.6783 2.64085 10.333 1.79486 10.038C0.757221 9.6761 -0.0674798 9.48471 0.00436272 8.87012C0.0417726 8.54992 0.452634 8.22256 1.23701 7.8879Z" fill="#11ACDD"/>
</svg>
