<svg style="display: none;" aria-hidden="true" xmlns="http://www.w3.org/2000/svg" xmlns:xlink="http://www.w3.org/1999/xlink"><symbol viewBox="0 0 47 46" id="increase"><path d="M41 0v4h-6a2 2 0 0 0-1.601.8L28 12h-5a2 2 0 0 0-1.414.586L16.172 18H11a2 2 0 0 0-1.11.336L4.396 22H3a2.002 2.002 0 0 0-1.432 3.424A2.001 2.001 0 0 0 3 26h2a2 2 0 0 0 1.11-.336L11.606 22H17a2 2 0 0 0 1.414-.586L23.828 16H29a2 2 0 0 0 1.602-.8L36 8h5v4l6-6-6-6Zm-2 16a2 2 0 0 0-2 2v28h8V18a2 2 0 0 0-2-2h-4Zm-12 6a2 2 0 0 0-2 2v22h8V24a2 2 0 0 0-2-2h-4Zm-12 6a2 2 0 0 0-2 2v16h8V30a2 2 0 0 0-2-2h-4ZM3 34a2 2 0 0 0-2 2v10h8V36a2 2 0 0 0-2-2H3Z"/></symbol><symbol viewBox="0 0 8 12" id="left-arrow"><path d="M7.707 1.415 3.122 6l4.585 4.585L6.292 12l-6-6 6-6 1.415 1.415Z"/></symbol><symbol viewBox="0 0 189 29" id="logo"><path d="M178.393 14.732h.31c1.033-1.612 2.583-2.418 4.65-2.418 1.901 0 3.317.61 4.247 1.829.93 1.22 1.395 2.821 1.395 4.805V28h-4.65v-8.525c0-.827-.197-1.498-.589-2.015-.393-.537-1.003-.806-1.829-.806-1.054 0-1.86.403-2.418 1.209-.538.806-.806 1.86-.806 3.162V28h-4.65V12.81h4.34v1.922Z"/><path d="M164.808 12.314c1.178 0 2.263.207 3.255.62a7.422 7.422 0 0 1 2.604 1.674 6.982 6.982 0 0 1 1.705 2.542c.413.992.62 2.077.62 3.255s-.207 2.263-.62 3.255a7.284 7.284 0 0 1-1.705 2.573c-.723.703-1.591 1.26-2.604 1.674-.992.393-2.077.589-3.255.589s-2.273-.196-3.286-.589a8.534 8.534 0 0 1-2.604-1.674 7.882 7.882 0 0 1-1.705-2.573c-.393-.992-.589-2.077-.589-3.255s.196-2.263.589-3.255a7.536 7.536 0 0 1 1.705-2.542 7.823 7.823 0 0 1 2.604-1.674c1.013-.413 2.108-.62 3.286-.62Zm0 11.842c.475 0 .92-.083 1.333-.248a3.922 3.922 0 0 0 1.147-.744c.331-.33.589-.723.775-1.178a4.305 4.305 0 0 0 .279-1.581c0-.579-.093-1.095-.279-1.55a3.535 3.535 0 0 0-.775-1.178 3.235 3.235 0 0 0-1.147-.744 3.21 3.21 0 0 0-1.333-.279c-.475 0-.93.093-1.364.279a3.309 3.309 0 0 0-1.116.744c-.331.33-.589.723-.775 1.178-.186.455-.279.971-.279 1.55 0 .579.093 1.106.279 1.581.186.455.444.847.775 1.178.331.31.703.558 1.116.744.434.165.889.248 1.364.248Z"/><path d="M152.828 11.136c-.413 0-.796-.072-1.147-.217a3.664 3.664 0 0 1-.93-.62 3.645 3.645 0 0 1-.62-.93 2.977 2.977 0 0 1-.217-1.147c0-.393.072-.765.217-1.116.165-.372.372-.682.62-.93a2.83 2.83 0 0 1 .93-.62 2.66 2.66 0 0 1 1.147-.248c.393 0 .765.083 1.116.248.372.145.682.351.93.62.269.248.475.558.62.93.165.351.248.723.248 1.116 0 .413-.083.796-.248 1.147a2.823 2.823 0 0 1-.62.93 3.048 3.048 0 0 1-.93.62 2.9 2.9 0 0 1-1.116.217ZM150.503 28V12.81h4.65V28h-4.65Z"/><path d="M142.499 28.496c-1.054 0-1.984-.124-2.79-.372s-1.509-.568-2.108-.961a6.71 6.71 0 0 1-1.457-1.395 7.014 7.014 0 0 1-.899-1.612l4.185-1.767c.289.703.692 1.22 1.209 1.55.517.31 1.137.465 1.86.465.62 0 1.095-.093 1.426-.279.351-.207.527-.465.527-.775 0-.351-.165-.62-.496-.806-.331-.207-.858-.393-1.581-.558l-2.077-.434a7.665 7.665 0 0 1-1.519-.496 5.717 5.717 0 0 1-1.426-.899 4.573 4.573 0 0 1-1.054-1.302c-.269-.517-.403-1.106-.403-1.767 0-.723.155-1.374.465-1.953.331-.6.775-1.106 1.333-1.519.558-.413 1.219-.734 1.984-.961a8.783 8.783 0 0 1 2.511-.341c1.571 0 2.924.279 4.061.837 1.137.537 1.994 1.447 2.573 2.728l-3.999 1.643c-.269-.537-.651-.93-1.147-1.178a3.115 3.115 0 0 0-1.457-.372c-.537 0-.971.093-1.302.279-.331.186-.496.413-.496.682 0 .29.165.527.496.713.351.165.775.31 1.271.434l2.356.558c1.55.372 2.707.971 3.472 1.798.765.827 1.147 1.798 1.147 2.914a4.09 4.09 0 0 1-.496 1.953c-.31.62-.765 1.168-1.364 1.643-.579.475-1.281.847-2.108 1.116-.806.29-1.705.434-2.697.434Z"/><path d="M131.423 11.136a2.98 2.98 0 0 1-1.147-.217 3.63 3.63 0 0 1-.93-.62 3.645 3.645 0 0 1-.62-.93 2.977 2.977 0 0 1-.217-1.147c0-.393.072-.765.217-1.116.165-.372.372-.682.62-.93.268-.269.578-.475.93-.62a2.656 2.656 0 0 1 1.147-.248c.392 0 .764.083 1.116.248.372.145.682.351.93.62.268.248.475.558.62.93.165.351.248.723.248 1.116 0 .413-.083.796-.248 1.147a2.838 2.838 0 0 1-.62.93 3.048 3.048 0 0 1-.93.62 2.906 2.906 0 0 1-1.116.217ZM129.098 28V12.81h4.65V28h-4.65Z"/><path d="M107.504 5.804h5.208l4.216 12.214.837 3.1h.31l.899-3.1 4.402-12.214h5.208L120.462 28h-5.084l-7.874-22.196Z"/><path d="M93.393 28h-4.65V16.716h-2.666V12.81h2.666v-1.116c0-2.005.558-3.524 1.674-4.557 1.116-1.054 2.584-1.581 4.402-1.581.31 0 .558.01.744.031.207 0 .393.02.558.062v4.433a1.659 1.659 0 0 0-.403-.093 4.829 4.829 0 0 0-.589-.031c-.558 0-.992.176-1.302.527-.29.351-.434.827-.434 1.426v.899h5.208V8.16h4.65v4.65h3.751v3.906h-3.751v5.115c0 .33.041.64.124.93.083.269.227.496.434.682.31.269.713.403 1.209.403.331 0 .61-.041.837-.124.227-.083.424-.186.589-.31l1.302 4.03a9.019 9.019 0 0 1-1.736.589 8.715 8.715 0 0 1-1.984.217c-1.633 0-2.924-.475-3.875-1.426a5.014 5.014 0 0 1-1.147-1.829c-.269-.744-.403-1.56-.403-2.449v-5.828h-5.208V28Z"/><path d="M77.976 12.314c1.178 0 2.263.207 3.255.62 1.013.393 1.88.95 2.604 1.674a6.979 6.979 0 0 1 1.705 2.542c.413.992.62 2.077.62 3.255s-.207 2.263-.62 3.255a7.28 7.28 0 0 1-1.705 2.573c-.723.703-1.591 1.26-2.604 1.674-.992.393-2.077.589-3.255.589s-2.273-.196-3.286-.589a8.534 8.534 0 0 1-2.604-1.674 7.882 7.882 0 0 1-1.705-2.573c-.393-.992-.589-2.077-.589-3.255s.196-2.263.589-3.255a7.536 7.536 0 0 1 1.705-2.542 7.823 7.823 0 0 1 2.604-1.674c1.013-.413 2.108-.62 3.286-.62Zm0 11.842c.475 0 .92-.083 1.333-.248a3.918 3.918 0 0 0 1.147-.744c.33-.33.589-.723.775-1.178a4.305 4.305 0 0 0 .279-1.581c0-.579-.093-1.095-.279-1.55a3.54 3.54 0 0 0-.775-1.178 3.232 3.232 0 0 0-1.147-.744 3.21 3.21 0 0 0-1.333-.279c-.475 0-.93.093-1.364.279a3.303 3.303 0 0 0-1.116.744 3.54 3.54 0 0 0-.775 1.178c-.186.455-.279.971-.279 1.55 0 .579.093 1.106.279 1.581.186.455.444.847.775 1.178.33.31.703.558 1.116.744a3.8 3.8 0 0 0 1.364.248Z"/><path d="M61.27 28.496c-2.068 0-3.855-.548-5.364-1.643-1.488-1.116-2.542-2.707-3.162-4.774l4.557-1.798c.269 1.054.713 1.922 1.333 2.604.62.682 1.498 1.023 2.635 1.023a4.33 4.33 0 0 0 1.054-.124c.352-.083.651-.207.9-.372.268-.186.485-.413.65-.682.166-.269.248-.579.248-.93 0-.351-.072-.672-.217-.961-.124-.31-.34-.589-.65-.837-.31-.269-.724-.527-1.24-.775a17.184 17.184 0 0 0-1.954-.837l-1.364-.496a11.545 11.545 0 0 1-1.798-.837 8.442 8.442 0 0 1-1.643-1.333 6.542 6.542 0 0 1-1.209-1.767c-.31-.682-.465-1.436-.465-2.263 0-.889.176-1.726.527-2.511a5.757 5.757 0 0 1 1.488-2.015c.64-.579 1.416-1.033 2.325-1.364.91-.33 1.912-.496 3.007-.496 1.158 0 2.15.155 2.976.465.827.29 1.53.672 2.108 1.147a5.346 5.346 0 0 1 1.364 1.55c.352.579.62 1.137.806 1.674l-4.185 1.767c-.227-.661-.589-1.188-1.085-1.581-.496-.413-1.136-.62-1.922-.62-.827 0-1.488.176-1.984.527-.475.33-.713.765-.713 1.302 0 .558.248 1.054.744 1.488.496.434 1.374.868 2.635 1.302l1.364.465c1.88.64 3.338 1.498 4.371 2.573 1.034 1.075 1.55 2.521 1.55 4.34 0 1.157-.237 2.16-.713 3.007a6.349 6.349 0 0 1-1.798 2.108 7.361 7.361 0 0 1-2.48 1.24 8.86 8.86 0 0 1-2.697.434Z"/><path d="M27 5C16.298 5 9.385 16.053 9.26 16.255a1.2 1.2 0 0 0-.06 1.406C9.22 17.703 15.022 29 27 29c11.927 0 17.72-11.186 17.791-11.323a1.2 1.2 0 0 0-.05-1.42l-.001-.002C44.615 16.053 37.702 5 27 5Zm0 3.6a8.4 8.4 0 1 1 0 16.8 8.4 8.4 0 0 1 0-16.8Zm0 4.8a3.6 3.6 0 1 0 0 7.2 3.6 3.6 0 0 0 0-7.2Z"/><path d="M5.615.372c.11-.39.661-.39.77 0l1.089 3.877a.4.4 0 0 0 .277.277l3.877 1.089c.39.11.39.66 0 .77L7.751 7.474a.4.4 0 0 0-.277.277l-1.089 3.877c-.109.39-.66.39-.77 0L4.527 7.751a.4.4 0 0 0-.277-.277L.372 6.385c-.39-.11-.39-.66 0-.77L4.25 4.526a.4.4 0 0 0 .277-.277L5.615.372Z"/></symbol><symbol viewBox="0 0 8 12" id="right-arrow"><path d="M.293 1.415 4.878 6 .293 10.585 1.708 12l6-6-6-6L.293 1.415Z"/></symbol><symbol viewBox="0 0 21 21" id="right-form-arrow"><path d="m11.355 20.145-2.048-2.028 6.135-6.135H.537V9.019h14.905L9.307 2.894 11.355.855 21 10.5l-9.645 9.645Z"/></symbol><symbol viewBox="0 0 19 18" id="tg"><path clip-rule="evenodd" d="M1.237 7.888C6.067 5.63 9.288 4.14 10.9 3.422 15.5 1.37 16.457 1.012 17.08 1c.138-.002.444.034.643.207.294.256.296.813.263 1.181-.25 2.811-1.328 9.633-1.877 12.781-.233 1.333-.69 1.78-1.133 1.823-.962.095-1.692-.682-2.624-1.338-1.459-1.025-2.283-1.664-3.698-2.665-1.636-1.156-.575-1.792.357-2.831.244-.272 4.483-4.41 4.565-4.785.01-.047.02-.222-.077-.314s-.24-.06-.343-.036c-.146.036-2.476 1.688-6.989 4.957-.661.487-1.26.724-1.797.712-.591-.014-1.73-.359-2.575-.654C.757 9.676-.067 9.485.005 8.87c.037-.32.448-.647 1.232-.982Z"/></symbol><symbol viewBox="0 0 18 18" id="ws"><path d="M8.563.01C3.81.238.058 4.197.073 8.956a8.888 8.888 0 0 0 .971 4.027l-.948 4.6a.347.347 0 0 0 .42.409l4.509-1.069c1.158.577 2.459.91 3.836.932 4.858.074 8.91-3.784 9.061-8.641A8.928 8.928 0 0 0 8.563.01Zm5.38 13.86A6.944 6.944 0 0 1 9 15.917a6.915 6.915 0 0 1-3.112-.729l-.627-.312-2.764.655.582-2.825-.31-.605a6.912 6.912 0 0 1-.76-3.174c0-1.867.728-3.622 2.048-4.942A7.003 7.003 0 0 1 9 1.937c1.867 0 3.622.727 4.942 2.048a6.945 6.945 0 0 1 2.048 4.942c0 1.85-.74 3.635-2.048 4.943Z"/><path d="m13.332 10.863-1.729-.496a.644.644 0 0 0-.637.168l-.423.43a.63.63 0 0 1-.685.145c-.818-.33-2.539-1.86-2.978-2.626a.63.63 0 0 1 .05-.698l.369-.478a.644.644 0 0 0 .08-.655L6.65 5.008a.645.645 0 0 0-1.007-.23c-.483.408-1.055 1.028-1.125 1.715-.123 1.212.397 2.739 2.362 4.573 2.27 2.118 4.087 2.398 5.27 2.111.672-.162 1.209-.814 1.547-1.348a.645.645 0 0 0-.366-.966Z"/></symbol></svg>