<svg style="display: none;" aria-hidden="true" xmlns="http://www.w3.org/2000/svg" xmlns:xlink="http://www.w3.org/1999/xlink"><symbol viewBox="0 0 47 46" id="increase"><path d="M41 0v4h-6a2 2 0 0 0-1.601.8L28 12h-5a2 2 0 0 0-1.414.586L16.172 18H11a2 2 0 0 0-1.11.336L4.396 22H3a2.002 2.002 0 0 0-1.432 3.424A2.001 2.001 0 0 0 3 26h2a2 2 0 0 0 1.11-.336L11.606 22H17a2 2 0 0 0 1.414-.586L23.828 16H29a2 2 0 0 0 1.602-.8L36 8h5v4l6-6-6-6Zm-2 16a2 2 0 0 0-2 2v28h8V18a2 2 0 0 0-2-2h-4Zm-12 6a2 2 0 0 0-2 2v22h8V24a2 2 0 0 0-2-2h-4Zm-12 6a2 2 0 0 0-2 2v16h8V30a2 2 0 0 0-2-2h-4ZM3 34a2 2 0 0 0-2 2v10h8V36a2 2 0 0 0-2-2H3Z"/></symbol><symbol viewBox="0 0 19 18" id="tg"><path clip-rule="evenodd" d="M1.237 7.888C6.067 5.63 9.288 4.14 10.9 3.422 15.5 1.37 16.457 1.012 17.08 1c.138-.002.444.034.643.207.294.256.296.813.263 1.181-.25 2.811-1.328 9.633-1.877 12.781-.233 1.333-.69 1.78-1.133 1.823-.962.095-1.692-.682-2.624-1.338-1.459-1.025-2.283-1.664-3.698-2.665-1.636-1.156-.575-1.792.357-2.831.244-.272 4.483-4.41 4.565-4.785.01-.047.02-.222-.077-.314s-.24-.06-.343-.036c-.146.036-2.476 1.688-6.989 4.957-.661.487-1.26.724-1.797.712-.591-.014-1.73-.359-2.575-.654C.757 9.676-.067 9.485.005 8.87c.037-.32.448-.647 1.232-.982Z"/></symbol><symbol viewBox="0 0 18 18" id="ws"><path d="M8.563.01C3.81.238.058 4.197.073 8.956a8.888 8.888 0 0 0 .971 4.027l-.948 4.6a.347.347 0 0 0 .42.409l4.509-1.069c1.158.577 2.459.91 3.836.932 4.858.074 8.91-3.784 9.061-8.641A8.928 8.928 0 0 0 8.563.01Zm5.38 13.86A6.944 6.944 0 0 1 9 15.917a6.915 6.915 0 0 1-3.112-.729l-.627-.312-2.764.655.582-2.825-.31-.605a6.912 6.912 0 0 1-.76-3.174c0-1.867.728-3.622 2.048-4.942A7.003 7.003 0 0 1 9 1.937c1.867 0 3.622.727 4.942 2.048a6.945 6.945 0 0 1 2.048 4.942c0 1.85-.74 3.635-2.048 4.943Z"/><path d="m13.332 10.863-1.729-.496a.644.644 0 0 0-.637.168l-.423.43a.63.63 0 0 1-.685.145c-.818-.33-2.539-1.86-2.978-2.626a.63.63 0 0 1 .05-.698l.369-.478a.644.644 0 0 0 .08-.655L6.65 5.008a.645.645 0 0 0-1.007-.23c-.483.408-1.055 1.028-1.125 1.715-.123 1.212.397 2.739 2.362 4.573 2.27 2.118 4.087 2.398 5.27 2.111.672-.162 1.209-.814 1.547-1.348a.645.645 0 0 0-.366-.966Z"/></symbol></svg>