<svg width="90" height="90" viewBox="0 0 90 90" fill="none" xmlns="http://www.w3.org/2000/svg">
<path d="M45 6C26.775 6 12 20.775 12 39C12 60.702 33.456 71.091 36.144 73.509C38.889 75.978 41.157 81.513 42.072 84.651C42.516 86.175 43.764 86.946 45 86.979C46.239 86.943 47.484 86.172 47.928 84.651C48.843 81.513 51.111 75.981 53.856 73.509C56.544 71.091 78 60.702 78 39C78 20.775 63.225 6 45 6Z" fill="black"/>
<path d="M45 27C34.298 27 27.3852 38.0534 27.2602 38.2547C27.0919 38.4667 27.0002 38.7293 27 39C27.0002 39.2322 27.0678 39.4593 27.1945 39.6539C27.1961 39.6563 27.1976 39.6586 27.1992 39.6609C27.2199 39.7035 33.0226 51 45 51C56.9266 51 62.7208 39.8145 62.7914 39.6773C62.7962 39.6696 62.8009 39.6618 62.8055 39.6539C62.9322 39.4593 62.9998 39.2322 63 39C63 38.7304 62.9091 38.4687 62.7422 38.257L62.7398 38.2547C62.6148 38.0534 55.702 27 45 27ZM45 30.6C49.6392 30.6 53.4 34.3608 53.4 39C53.4 43.6392 49.6392 47.4 45 47.4C40.3608 47.4 36.6 43.6392 36.6 39C36.6 34.3608 40.3608 30.6 45 30.6ZM45 35.4C44.0452 35.4 43.1295 35.7793 42.4544 36.4544C41.7793 37.1295 41.4 38.0452 41.4 39C41.4 39.9548 41.7793 40.8705 42.4544 41.5456C43.1295 42.2207 44.0452 42.6 45 42.6C45.9548 42.6 46.8705 42.2207 47.5456 41.5456C48.2207 40.8705 48.6 39.9548 48.6 39C48.6 38.0452 48.2207 37.1295 47.5456 36.4544C46.8705 35.7793 45.9548 35.4 45 35.4Z" fill="#10EE0E"/>
</svg>
