<svg width="28" height="28" viewBox="0 0 28 28" fill="none" xmlns="http://www.w3.org/2000/svg">
<path d="M8.02607 6.00315C7.92455 5.99474 7.82118 6.00315 7.71777 6.02845C7.31625 6.1264 6.79537 6.36427 6.24896 6.91068C4.53847 8.62115 3.63096 11.5047 10.0625 17.937C16.494 24.3693 19.3776 23.4618 21.0889 21.7505C21.6369 21.2024 21.8747 20.6808 21.9727 20.2785C22.0722 19.8665 21.8943 19.4424 21.5284 19.2287C20.6153 18.6944 18.6446 17.5392 17.7307 17.0041C17.4303 16.8285 17.0618 16.8316 16.7631 17.0089L15.2516 17.9101C14.9132 18.1116 14.4904 18.0889 14.1796 17.8468C13.6429 17.4275 12.7798 16.7213 12.0278 15.9701C11.2757 15.2181 10.5695 14.355 10.151 13.8183C9.90899 13.5083 9.88541 13.0847 10.0878 12.7464L10.989 11.2349C11.1671 10.9362 11.1678 10.5644 10.9922 10.2641L8.77234 6.47431C8.61084 6.19989 8.33066 6.02839 8.02607 6.00315Z" fill="black"/>
<path d="M15.6364 5C14.7323 5 14 5.64671 14 6.44516V9.33548C14 10.1339 14.7323 10.7806 15.6364 10.7806V13L18.9675 10.7806H21.3636C22.2677 10.7806 23 10.1339 23 9.33548V6.44516C23 5.64671 22.2677 5 21.3636 5H15.6364Z" fill="#02D700"/>
</svg>
