<svg width="192" height="26" viewBox="0 0 192 26" fill="none" xmlns="http://www.w3.org/2000/svg">
<g clip-path="url(#clip0_3061_11)">
<mask id="mask0_3061_11" style="mask-type:luminance" maskUnits="userSpaceOnUse" x="-172" y="-10057" width="1608" height="13308">
<path d="M1435.53 -10056.6H-171.907V3250.38H1435.53V-10056.6Z" fill="white"/>
</mask>
<g mask="url(#mask0_3061_11)">
<mask id="mask1_3061_11" style="mask-type:luminance" maskUnits="userSpaceOnUse" x="-172" y="-494" width="1608" height="1155">
<path d="M1435.53 -493.639H-171.907V660.594H1435.53V-493.639Z" fill="white"/>
</mask>
<g mask="url(#mask1_3061_11)">
<mask id="mask2_3061_11" style="mask-type:luminance" maskUnits="userSpaceOnUse" x="-83" y="-144" width="359" height="314">
<path d="M-82.6045 -143.127H275.442V169.431H-82.6045V-143.127Z" fill="white"/>
</mask>
<g mask="url(#mask2_3061_11)">
<path d="M274.326 -143.127V169.431H276.558V-143.127H274.326ZM-81.4881 169.431V-143.127H-83.7207V169.431H-81.4881Z" fill="black" fill-opacity="0.1"/>
</g>
<mask id="mask3_3061_11" style="mask-type:luminance" maskUnits="userSpaceOnUse" x="0" y="0" width="192" height="26">
<path d="M191.86 0.873047H0.976562V25.4312H191.86V0.873047Z" fill="white"/>
</mask>
<g mask="url(#mask3_3061_11)">
<path d="M142.375 20.2127C143.412 20.2127 144.243 19.394 144.243 18.2684C144.243 17.2451 143.412 16.3242 142.375 16.3242C141.338 16.3242 140.508 17.1429 140.508 18.2684C140.404 19.394 141.338 20.2127 142.375 20.2127Z" fill="#0D0E14"/>
<path d="M33.4472 19.7006C32.6173 19.3936 31.8911 18.882 31.2687 18.1657C30.6462 17.5518 30.2312 16.7332 29.92 15.9146C29.6088 15.0959 29.4014 14.0728 29.4014 13.1518C29.4014 12.2309 29.5051 11.2076 29.8163 10.389C30.1275 9.57038 30.5425 8.75178 31.165 8.13783C31.7874 7.52387 32.4099 7.01224 33.2398 6.60294C34.0696 6.29597 35.0033 6.09131 36.0408 6.09131C36.9744 6.09131 37.7006 6.19364 38.4268 6.39829C39.153 6.60294 39.6717 7.01224 40.2941 7.42154C40.8129 7.83085 41.2278 8.34248 41.539 8.95643C41.8502 9.57038 42.0577 10.2867 42.1614 11.0029H38.6343C38.5305 10.389 38.2193 9.87736 37.8044 9.46805C37.3893 9.05876 36.7669 8.8541 36.1445 8.8541C35.0033 8.8541 34.2772 9.26341 33.6547 9.97969C33.136 10.696 32.8248 11.8216 32.8248 13.0495C32.8248 14.2774 33.0323 15.3007 33.6547 16.1192C34.1735 16.9378 35.0033 17.2448 36.1445 17.2448C36.8707 17.2448 37.4932 17.0402 37.9081 16.7332C38.3231 16.3238 38.6343 15.8123 38.8417 14.9937H42.369C42.369 15.7099 42.1614 16.4262 41.8502 17.0402C41.539 17.6541 41.1241 18.1657 40.6053 18.6774C40.0867 19.0866 39.4642 19.496 38.738 19.803C38.0119 20.0076 37.1819 20.2123 36.2483 20.2123C35.2108 20.3145 34.2772 20.1099 33.4472 19.7006Z" fill="#0D0E14"/>
<path d="M47.9726 8.13837C48.4913 7.4221 49.0101 6.91047 49.6325 6.50117C50.1512 6.19419 50.8774 5.98953 51.811 5.98953C52.5373 5.98953 53.1597 6.09186 53.6785 6.39884C54.1971 6.60349 54.7158 7.01279 55.1307 7.4221C55.5458 7.8314 55.857 8.44535 56.0645 9.0593C56.2719 9.67326 56.3757 10.3895 56.3757 11.1058V19.9058H52.7447V11.6175C52.7447 10.9012 52.5373 10.2872 52.1223 9.77559C51.7073 9.36628 51.0849 9.0593 50.3586 9.0593C49.5288 9.0593 48.9064 9.36628 48.3876 9.87791C47.8689 10.3895 47.5577 11.2081 47.5577 12.1291V19.8035H43.9268V0.975586H47.5577L47.9726 8.13837Z" fill="#0D0E14"/>
<path d="M62.3923 19.7004C61.5625 19.3934 60.8362 18.8818 60.2138 18.1655C59.5914 17.5516 59.1764 16.733 58.8652 15.9143C58.554 14.9934 58.4502 14.0725 58.4502 13.1515C58.4502 12.2306 58.554 11.2074 58.9689 10.3888C59.2801 9.57016 59.7989 8.75156 60.3176 8.13761C60.9401 7.52365 61.5625 7.01202 62.3923 6.60272C63.1186 6.19342 64.0522 5.98877 64.9859 5.98877C66.1271 5.98877 67.0607 6.19342 67.787 6.60272C68.6168 7.01202 69.2393 7.52365 69.8618 8.23992C70.3804 8.95621 70.8992 9.87714 71.1067 10.7981C71.4179 11.8214 71.5216 12.9469 71.5216 14.0725H61.7699C61.8737 15.0958 62.2886 16.0167 62.8074 16.5283C63.3261 17.1422 64.1559 17.4492 65.1934 17.4492C65.9196 17.4492 66.4383 17.347 66.8532 17.04C67.2682 16.733 67.5795 16.3237 67.787 15.8121H71.5216C71.4179 16.426 71.2104 16.9376 70.8992 17.5516C70.5879 18.0632 70.173 18.5749 69.6543 18.9841C69.1356 19.3934 68.5131 19.7004 67.787 19.905C67.0607 20.1097 66.3346 20.212 65.4009 20.212C64.2598 20.3144 63.2223 20.1097 62.3923 19.7004ZM62.9111 9.57016C62.3923 10.0818 62.0811 10.7981 61.8737 11.719H67.8907C67.8907 10.9004 67.5795 10.1841 67.0607 9.57016C66.542 9.05854 65.8158 8.75156 65.0897 8.75156C64.1559 8.75156 63.4298 9.05854 62.9111 9.57016Z" fill="#0D0E14"/>
<path d="M77.0195 19.7006C76.1895 19.3936 75.4634 18.882 74.8409 18.1657C74.2185 17.5518 73.8035 16.7332 73.4923 15.9146C73.181 15.0959 72.9736 14.0728 72.9736 13.1518C72.9736 12.2309 73.0773 11.2076 73.3885 10.389C73.6998 9.57038 74.1148 8.75178 74.7372 8.13783C75.3597 7.52387 75.9821 7.01224 76.8121 6.60294C77.6419 6.29597 78.5757 6.09131 79.613 6.09131C80.5467 6.09131 81.2728 6.19364 81.9991 6.39829C82.7252 6.60294 83.244 7.01224 83.8664 7.42154C84.3851 7.83085 84.8001 8.34248 85.1113 8.95643C85.4225 9.57038 85.63 10.2867 85.7337 11.0029H82.2066C82.1028 10.389 81.7916 9.87736 81.3766 9.46805C80.9616 9.05876 80.3392 8.8541 79.7167 8.8541C78.5756 8.8541 77.8494 9.26341 77.227 9.97969C76.7083 10.696 76.397 11.8216 76.397 13.0495C76.397 14.2774 76.6046 15.3007 77.227 16.1192C77.7457 16.9378 78.5756 17.2448 79.7167 17.2448C80.443 17.2448 81.0654 17.0402 81.4803 16.7332C81.8954 16.3238 82.2066 15.8123 82.414 14.9937H85.8375C85.8375 15.7099 85.63 16.4262 85.3188 17.0402C85.0076 17.6541 84.5926 18.1657 84.0739 18.6774C83.5552 19.0866 82.9327 19.496 82.2066 19.803C81.4804 20.0076 80.6504 20.2123 79.7167 20.2123C78.7831 20.3145 77.8494 20.1099 77.0195 19.7006Z" fill="#0D0E14"/>
<path d="M91.4393 15.3012V19.8035H87.9121V0.975586H91.4393V11.4127L96.2114 6.29651H100.465L95.4852 11.4127L101.087 19.8035H96.73L92.8916 13.6639L91.4393 15.3012Z" fill="#0D0E14"/>
<path d="M105.029 19.7006C104.199 19.3936 103.473 18.882 102.747 18.1657C102.124 17.5518 101.605 16.7332 101.294 15.9146C100.983 15.0959 100.775 14.0728 100.775 13.1518C100.775 12.2309 100.879 11.2076 101.294 10.389C101.605 9.57038 102.124 8.75178 102.747 8.13783C103.369 7.52387 104.095 7.01224 105.029 6.60294C105.859 6.29597 106.792 6.09131 107.83 6.09131C108.867 6.09131 109.801 6.29597 110.631 6.60294C111.461 6.90992 112.187 7.42155 112.913 8.13783C113.535 8.75178 114.054 9.57038 114.366 10.389C114.677 11.2076 114.884 12.2309 114.884 13.1518C114.884 14.0728 114.781 15.0959 114.366 15.9146C114.054 16.7332 113.535 17.5518 112.913 18.1657C112.291 18.7797 111.564 19.2914 110.631 19.7006C109.905 20.1099 108.867 20.3145 107.83 20.3145C106.792 20.3145 105.859 20.1099 105.029 19.7006ZM110.423 16.3238C111.046 15.5053 111.357 14.482 111.357 13.1518C111.357 11.8216 111.046 10.7983 110.423 9.97969C109.801 9.16108 108.971 8.75178 107.934 8.75178C106.896 8.75178 105.963 9.16108 105.444 9.97969C104.821 10.7983 104.51 11.9239 104.51 13.1518C104.51 14.3797 104.821 15.5053 105.444 16.3238C106.066 17.1425 106.896 17.5518 107.934 17.5518C108.971 17.5518 109.801 17.1425 110.423 16.3238Z" fill="#0D0E14"/>
<path d="M125.362 18.2687C124.843 18.8827 124.22 19.3943 123.702 19.7012C123.079 20.0082 122.353 20.2128 121.42 20.2128C119.967 20.2128 118.826 19.8036 117.892 18.8827C117.063 17.9617 116.647 16.8361 116.647 15.3012V6.39893H120.175V14.7896C120.175 15.6082 120.383 16.2221 120.694 16.6315C121.004 17.0408 121.627 17.2454 122.353 17.2454C123.183 17.2454 123.806 16.9384 124.324 16.4269C124.843 15.9151 125.051 15.0966 125.051 14.1757V6.39893H128.682V19.9058H125.258L125.362 18.2687Z" fill="#0D0E14"/>
<path d="M132.314 6.39826V2.10059H135.841V6.39826H138.123V8.75175H135.841V15.9146C135.841 16.4262 135.945 16.7332 136.152 16.9378C136.36 17.1425 136.67 17.2447 137.189 17.2447H137.916C138.019 17.2447 138.123 17.2447 138.226 17.2447V19.9053C138.019 19.9053 137.916 19.9053 137.605 19.9053C137.397 19.9053 137.189 19.9053 136.878 19.9053H135.945C135.53 19.9053 135.114 19.9053 134.7 19.8029C134.285 19.7006 133.87 19.5983 133.558 19.2913C133.247 19.0866 132.936 18.6774 132.729 18.268C132.521 17.8587 132.417 17.3471 132.417 16.6308V8.75175H130.55V6.39826H132.314Z" fill="#0D0E14"/>
<path d="M149.431 19.7007C148.704 19.3937 148.083 18.882 147.46 18.1658C146.942 17.5519 146.526 16.7332 146.215 15.9146C146.007 15.0961 145.8 14.0728 145.8 13.0495C145.8 12.0263 145.904 11.1053 146.215 10.1844C146.526 9.36579 146.942 8.54718 147.46 7.93323C147.979 7.31927 148.704 6.80765 149.431 6.39834C150.158 6.09137 151.091 5.88672 152.024 5.88672C153.476 5.88672 154.722 6.29602 155.759 7.0123C156.692 7.72858 157.315 8.85416 157.523 10.2867H155.967C155.759 9.26346 155.344 8.44486 154.722 8.03556C154.099 7.52393 153.27 7.31927 152.232 7.31927C151.402 7.31927 150.78 7.4216 150.158 7.72858C149.639 8.03556 149.12 8.44486 148.808 8.95649C148.498 9.46811 148.186 10.0821 147.979 10.7983C147.771 11.5146 147.771 12.2309 147.771 13.0495C147.771 13.8682 147.875 14.5844 148.083 15.3007C148.29 16.017 148.498 16.631 148.912 17.1425C149.223 17.6541 149.743 18.0635 150.26 18.3704C150.78 18.6774 151.506 18.7798 152.232 18.7798C153.374 18.7798 154.307 18.4728 155.033 17.7565C155.759 17.1425 156.174 16.2216 156.278 15.0961H157.834C157.731 16.631 157.108 17.8589 156.175 18.7798C155.24 19.7007 153.892 20.1099 152.336 20.1099C151.091 20.2123 150.158 20.0077 149.431 19.7007Z" fill="#0D0E14"/>
<path d="M162.71 19.7007C161.88 19.3937 161.257 18.882 160.739 18.1658C160.22 17.5519 159.805 16.7332 159.494 15.9146C159.183 15.0961 159.079 14.0728 159.079 13.0495C159.079 12.0263 159.183 11.1053 159.494 10.1844C159.805 9.36579 160.22 8.54718 160.739 7.93323C161.257 7.31927 161.984 6.80765 162.71 6.39834C163.54 6.09137 164.369 5.88672 165.303 5.88672C166.341 5.88672 167.171 6.09137 167.897 6.39834C168.623 6.70532 169.349 7.21696 169.868 7.93323C170.387 8.54718 170.801 9.36579 171.113 10.1844C171.424 11.003 171.528 12.0263 171.528 13.0495C171.528 14.0728 171.424 14.9937 171.113 15.9146C170.801 16.7332 170.387 17.5519 169.868 18.1658C169.349 18.7798 168.623 19.2914 167.897 19.7007C167.171 20.0077 166.237 20.2123 165.303 20.2123C164.369 20.2123 163.54 20.0077 162.71 19.7007ZM167.379 18.4728C168 18.1658 168.416 17.7565 168.831 17.2449C169.245 16.7332 169.557 16.1192 169.66 15.403C169.868 14.6867 169.972 13.9704 169.972 13.1518C169.972 12.3333 169.868 11.617 169.66 10.9007C169.453 10.1844 169.141 9.57044 168.831 9.05882C168.416 8.54718 168 8.13789 167.379 7.83091C166.756 7.52393 166.133 7.4216 165.407 7.4216C164.681 7.4216 163.955 7.52393 163.436 7.83091C162.917 8.13789 162.399 8.54718 161.984 9.05882C161.568 9.57044 161.257 10.1844 161.05 10.9007C160.843 11.617 160.739 12.3333 160.739 13.1518C160.739 13.9704 160.843 14.6867 161.05 15.403C161.257 16.1192 161.568 16.7332 161.984 17.2449C162.399 17.7565 162.917 18.1658 163.436 18.4728C163.955 18.7798 164.681 18.882 165.407 18.882C166.133 18.882 166.86 18.7798 167.379 18.4728Z" fill="#0D0E14"/>
<path d="M175.574 6.1937V8.2402C175.989 7.52393 176.611 7.0123 177.234 6.50067C177.856 6.09137 178.686 5.88672 179.723 5.88672C180.554 5.88672 181.279 6.09137 182.006 6.50067C182.628 6.90998 183.147 7.52393 183.354 8.34253C183.77 7.52393 184.391 6.90998 185.118 6.50067C185.844 6.09137 186.674 5.88672 187.607 5.88672C188.23 5.88672 188.749 5.98905 189.164 6.1937C189.579 6.39834 190.098 6.603 190.408 7.0123C190.72 7.31927 191.031 7.83091 191.239 8.34253C191.446 8.85416 191.862 9.46811 191.862 10.0821V19.803H190.305V10.2867C190.305 9.26346 190.098 8.54718 189.475 8.03556C188.852 7.52393 188.23 7.31927 187.4 7.31927C186.882 7.31927 186.363 7.4216 186.051 7.52393C185.636 7.72858 185.222 7.93323 184.911 8.2402C184.599 8.54718 184.288 8.95649 184.08 9.46811C183.873 9.97975 183.77 10.4914 183.77 11.1053V19.803H182.11V10.2867C182.11 9.26346 181.902 8.54718 181.279 8.03556C180.761 7.52393 180.138 7.31927 179.308 7.31927C178.79 7.31927 178.375 7.4216 177.959 7.62625C177.545 7.83091 177.13 8.03556 176.715 8.44486C176.403 8.75184 176.092 9.16113 175.885 9.67277C175.678 10.0821 175.574 10.696 175.574 11.2076V19.803H173.914V6.1937H175.574Z" fill="#0D0E14"/>
<path d="M15.9157 13.1521L22.2439 1.99862C22.3477 1.79398 22.3477 1.487 22.2439 1.28235C22.1402 0.975373 21.9327 0.873047 21.6215 0.873047H8.5501C8.23888 0.873047 8.03139 0.975373 7.82391 1.18002L1.08074 12.7428C0.976994 12.9474 0.976994 13.2544 1.08074 13.4592L7.82391 25.0219C8.03139 25.3289 8.23888 25.4311 8.5501 25.4311H21.7253C21.9327 25.4311 22.2439 25.3289 22.3477 25.1243C22.4514 24.9195 22.4514 24.6126 22.3477 24.408L15.9157 13.1521ZM15.0858 11.7195L9.79499 2.40793H20.3766L15.0858 11.7195ZM8.44636 3.12421L14.1521 13.1521L8.44636 23.18L2.53312 13.1521L8.44636 3.12421ZM9.79499 23.8963L15.0858 14.5847L20.3766 23.8963H9.79499Z" fill="#0D0E14"/>
</g>
</g>
</g>
</g>
<defs>
<clipPath id="clip0_3061_11">
<rect width="192" height="25.6744" fill="white"/>
</clipPath>
</defs>
</svg>
