<svg width="147" height="38" viewBox="0 0 147 38" fill="none" xmlns="http://www.w3.org/2000/svg">
<g clip-path="url(#clip0_3061_254)">
<mask id="mask0_3061_254" style="mask-type:luminance" maskUnits="userSpaceOnUse" x="-1" y="0" width="148" height="38">
<path d="M146.994 0.00146484H-0.00585938V37.0408H146.994V0.00146484Z" fill="white"/>
</mask>
<g mask="url(#mask0_3061_254)">
<path d="M50.0248 9.20725C52.895 9.29409 55.1029 10.0757 56.56 11.5955C58.0172 13.1153 58.7679 15.4167 58.7679 18.543C58.7679 21.6695 58.0172 23.9709 56.56 25.4907C55.1029 27.0105 52.9391 27.8355 50.0248 27.8789H43.4453V9.20725H50.0248ZM49.0974 26.3591C50.4662 26.3591 51.6586 26.2288 52.63 25.9249C53.6015 25.6209 54.4404 25.1867 55.0587 24.5354C55.6769 23.9275 56.1625 23.1025 56.4717 22.1037C56.7808 21.105 56.9133 19.9326 56.9133 18.4996C56.9133 17.1102 56.7808 15.8943 56.4717 14.8956C56.1625 13.8969 55.721 13.0719 55.0587 12.4639C54.4404 11.856 53.6015 11.3783 52.63 11.0744C51.6586 10.7704 50.4662 10.6402 49.0974 10.6402H45.2557V26.2722H49.0974V26.3591ZM61.1523 9.20725L65.4798 25.5775H65.524L70.1605 9.20725H72.4125L77.049 25.5775H77.0933L81.4206 9.20725H83.231L77.9763 27.8789H76.0776L71.2644 11.1612H71.2203L66.4513 27.8789H64.4642L59.2095 9.20725H61.1523ZM84.2908 14.8522C84.6441 13.6798 85.2182 12.6376 85.9688 11.7692C86.7196 10.8572 87.6468 10.1625 88.7949 9.64146C89.8988 9.1204 91.2235 8.85986 92.7249 8.85986C94.2263 8.85986 95.5068 9.1204 96.6549 9.64146C97.7589 10.1625 98.6862 10.9008 99.4368 11.7692C100.188 12.6811 100.762 13.6798 101.115 14.8522C101.468 16.0246 101.689 17.2404 101.689 18.543C101.689 19.8458 101.512 21.0616 101.115 22.234C100.762 23.4064 100.188 24.4485 99.4368 25.3169C98.6862 26.1854 97.7589 26.9236 96.6549 27.4446C95.551 27.9657 94.2263 28.2263 92.7249 28.2263C91.2235 28.2263 89.943 27.9657 88.7949 27.4446C87.6468 26.9236 86.7196 26.1854 85.9688 25.3169C85.2182 24.4485 84.6441 23.4064 84.2908 22.234C83.9376 21.0616 83.7168 19.8458 83.7168 18.543C83.7168 17.2404 83.8935 16.0246 84.2908 14.8522ZM85.9688 21.5392C86.2338 22.538 86.6753 23.4064 87.2495 24.1879C87.8235 24.9696 88.5742 25.5775 89.4572 26.0552C90.3404 26.5328 91.4444 26.7499 92.7249 26.7499C94.0054 26.7499 95.0652 26.5328 95.9484 26.0552C96.8315 25.5775 97.5823 24.9696 98.1563 24.1879C98.7304 23.4064 99.1718 22.538 99.4368 21.5392C99.7017 20.5839 99.8343 19.5418 99.8343 18.543C99.8343 17.5009 99.7017 16.5022 99.4368 15.5469C99.1718 14.5916 98.7304 13.6798 98.1563 12.8981C97.5823 12.1166 96.8315 11.5087 95.9484 11.031C95.0652 10.5533 93.9613 10.3362 92.7249 10.3362C91.4885 10.3362 90.3846 10.5533 89.4572 11.031C88.5742 11.5087 87.8235 12.1166 87.2495 12.8981C86.6753 13.6798 86.2338 14.5482 85.9688 15.5469C85.7039 16.5457 85.5715 17.5444 85.5715 18.543C85.5272 19.5418 85.6598 20.5405 85.9688 21.5392ZM105.707 9.20725V26.3591H116.349V27.8789H103.897V9.20725H105.707ZM120.014 9.20725V26.3591H130.657V27.8789H118.203V9.20725H120.014Z" fill="#0D0E14"/>
<path d="M139.532 9.20703L146.994 27.8787H145.052L142.756 22.0601H134.101L131.805 27.8787H129.905L137.545 9.20703H139.532ZM142.138 20.5403L138.472 10.9874L134.674 20.5403H142.138Z" fill="#0D0E14"/>
<path d="M32.0966 8.46922L17.7013 0.305797C17.0388 -0.0850053 16.1558 -0.0850053 15.4934 0.305797L1.09808 8.46922C0.435719 8.86003 -0.00585938 9.55478 -0.00585938 10.3364V26.7066C-0.00585938 27.4882 0.435719 28.183 1.09808 28.5738L15.4934 36.7372C16.1558 37.1281 17.0388 37.1281 17.7013 36.7372L32.0966 28.5738C32.7589 28.183 33.2005 27.4882 33.2005 26.7066V10.3364C33.2005 9.55478 32.803 8.86003 32.0966 8.46922ZM7.14764 14.4181V23.8842L2.20201 26.7066V10.3364L16.5973 2.17296V7.81788L8.25157 12.551C7.58921 12.9417 7.14764 13.68 7.14764 14.4181ZM15.4934 16.6326C14.8311 17.0235 14.3895 17.7182 14.3895 18.4998V27.9225L9.35551 30.7883V14.4181L23.7508 6.25468V11.9431L15.4934 16.6326ZM30.9926 26.7066L16.5973 34.8701V18.5432L30.9926 10.3798C30.9926 10.3364 30.9926 26.7066 30.9926 26.7066Z" fill="#0D0E14"/>
</g>
</g>
<defs>
<clipPath id="clip0_3061_254">
<rect width="147" height="37.0394" fill="white"/>
</clipPath>
</defs>
</svg>
