<svg width="155" height="33" viewBox="0 0 155 33" fill="none" xmlns="http://www.w3.org/2000/svg">
<g clip-path="url(#clip0_3061_299)">
<path d="M0.205335 19.4957C-0.374432 15.6203 0.269925 11.422 2.03845 7.95108C3.70445 4.68265 6.1122 2.056 9.26171 0.0711587C9.33407 0.025904 9.41827 0.00191984 9.50469 0.00195316H27.6913C27.9076 0.00195316 27.9168 0.0450146 27.719 0.131134C23.0408 2.1857 18.6641 5.23679 16.059 9.49046C14.3704 12.2463 13.6149 15.1897 13.7922 18.3208C14.1244 24.1708 18.8886 29.0903 23.6698 32.0276C23.799 32.1065 23.7877 32.146 23.6359 32.146C18.9096 32.146 14.23 32.1475 9.59697 32.1506C9.36474 32.1506 9.20328 32.0583 9.00643 31.9538C4.25602 29.3979 1.00501 24.8505 0.205335 19.4957Z" fill="black"/>
<path d="M92.9015 25.3273C92.8624 25.3273 92.8248 25.3118 92.7971 25.2841C92.7694 25.2564 92.7539 25.2189 92.7539 25.1797V11.3744C92.7539 8.3795 92.7615 5.50724 92.775 3.3895C92.7886 1.27177 92.807 0.0820312 92.8262 0.0820312H96.5661C96.5853 0.0820312 96.6037 1.27177 96.6173 3.3895C96.6308 5.50724 96.6384 8.3795 96.6384 11.3744V25.1797C96.6384 25.2189 96.6229 25.2564 96.5952 25.2841C96.5675 25.3118 96.53 25.3273 96.4908 25.3273H92.9015Z" fill="black"/>
<path d="M114.028 0.520298C114.048 1.22872 114.057 1.93306 114.057 2.6333C114.054 10.1523 114.051 17.6852 114.048 25.2319C114.048 25.2564 114.038 25.2799 114.021 25.2971C114.004 25.3145 113.98 25.3243 113.956 25.3243L110.31 25.3212C110.283 25.3212 110.257 25.3105 110.238 25.2914C110.219 25.2723 110.208 25.2466 110.208 25.2196L110.211 0.163511C110.211 0.101998 110.241 0.0717532 110.302 0.0727792L113.92 0.0835431C113.938 0.0835936 113.955 0.0896357 113.968 0.100604C113.981 0.111574 113.99 0.126767 113.993 0.143518C114.013 0.269621 114.025 0.395214 114.028 0.520298Z" fill="black"/>
<path d="M103.409 4.8252C104.738 4.82055 105.812 3.78747 105.808 2.51774C105.803 1.24799 104.722 0.222426 103.393 0.227066C102.064 0.231706 100.99 1.26479 100.994 2.53453C100.999 3.80427 102.08 4.82984 103.409 4.8252Z" fill="black"/>
<path d="M63.0656 10.5779L63.0625 7.8451C63.0625 7.83318 63.0648 7.82139 63.0694 7.81038C63.0739 7.79937 63.0806 7.78937 63.089 7.78094C63.0975 7.77251 63.1075 7.76584 63.1185 7.76128C63.1294 7.75671 63.1413 7.75437 63.1532 7.75437L66.8286 7.75898C66.8457 7.75898 66.8622 7.76578 66.8744 7.7779C66.8864 7.79001 66.8932 7.80644 66.8932 7.82357C66.8902 13.246 66.8896 18.5136 66.8917 23.6265C66.8932 28.8028 63.5761 32.1892 58.4628 32.5075C55.9437 32.6644 53.3371 32.22 51.384 30.5991C51.3619 30.5803 51.344 30.557 51.3318 30.5306C51.3196 30.5043 51.3133 30.4757 51.3134 30.4468L51.3195 26.9882C51.3198 26.9782 51.3229 26.9685 51.3286 26.9602C51.3343 26.952 51.3422 26.9454 51.3514 26.9416C51.3607 26.9377 51.3708 26.9366 51.3807 26.9383C51.3906 26.94 51.3998 26.9445 51.4071 26.9513C53.3186 28.7967 56.0053 29.5426 58.6104 29.1735C61.8675 28.7137 63.0625 26.0901 63.0594 23.076C63.0583 22.4567 63.0656 21.8702 63.081 21.3167C63.087 21.0727 63.0358 21.0598 62.9271 21.2782C61.8752 23.3773 60.1806 24.6215 57.8754 24.7691C56.9505 24.8276 56.0811 24.7583 55.2671 24.5615C50.0815 23.3051 48.7851 17.2674 50.1153 12.8524C51.2195 9.19225 54.2444 7.07925 58.0645 7.23457C60.3789 7.32991 61.9937 8.40641 62.9425 10.604C63.0245 10.7968 63.0656 10.7881 63.0656 10.5779ZM59.2471 10.6178C57.3571 10.278 55.5639 10.9577 54.5121 12.5601C52.7297 15.2759 53.251 20.6123 57.0587 21.3628C58.6519 21.6775 60.0278 21.3823 61.1863 20.477C63.1409 18.9499 63.4269 15.7742 62.6872 13.6551C62.1305 12.0649 60.908 10.9178 59.2471 10.6178Z" fill="black"/>
<path d="M84.1638 22.1425C84.1638 22.0041 84.1341 21.9969 84.0746 22.121C82.7321 24.9076 80.0762 26.1978 77.0544 25.7595C73.8957 25.3012 71.7287 22.9345 70.8799 19.9219C70.516 18.6301 70.3827 17.2312 70.48 15.7251C70.7723 11.1838 73.8203 7.08085 78.7521 7.23157C81.1835 7.30538 83.0459 8.54334 84.0562 10.7425C84.1279 10.8983 84.1638 10.8901 84.1638 10.7179V7.83594C84.1638 7.77852 84.1926 7.75032 84.2499 7.75136L87.8592 7.7652C87.9392 7.76622 87.9792 7.8062 87.9792 7.88514L87.9777 25.2121C87.9777 25.2268 87.9748 25.2414 87.9692 25.255C87.9634 25.2686 87.9552 25.281 87.9448 25.2914C87.9344 25.3019 87.922 25.3102 87.9084 25.3158C87.8947 25.3214 87.8801 25.3243 87.8654 25.3243L84.2346 25.3212C84.2253 25.3212 84.2161 25.3195 84.2075 25.3159C84.1989 25.3125 84.1911 25.3074 84.1845 25.301C84.178 25.2946 84.1728 25.287 84.1692 25.2785C84.1657 25.2701 84.1638 25.2611 84.1638 25.252V22.1425ZM78.8029 10.6302C74.7399 11.0454 73.7895 15.6758 74.6922 18.8731C75.2212 20.7492 76.6253 22.1949 78.5907 22.3932C83.2458 22.8637 84.962 18.0119 83.9377 14.2795C83.2857 11.9066 81.3004 10.3734 78.8029 10.6302Z" fill="black"/>
<path d="M121.849 17.3002C121.719 17.3002 121.664 17.3642 121.685 17.4924C122.221 20.9617 124.679 22.5318 127.953 22.4965C130.012 22.475 131.859 21.8813 133.494 20.7157C133.502 20.7103 133.51 20.7072 133.519 20.7065C133.529 20.7059 133.539 20.7079 133.547 20.7121C133.555 20.7164 133.562 20.7229 133.567 20.7309C133.571 20.7388 133.575 20.7479 133.575 20.7572L133.572 23.9174C133.572 23.9553 133.563 23.9925 133.545 24.0261C133.528 24.0596 133.501 24.0884 133.47 24.1097C132.379 24.8448 131.147 25.3446 129.774 25.6091C124.465 26.6318 118.985 24.3896 117.92 18.6089C117.019 13.7092 119.049 8.41135 124.46 7.41329C129.639 6.45983 134.076 8.96805 134.236 14.5612C134.262 15.4326 134.265 16.3143 134.249 17.2063C134.249 17.2313 134.239 17.2551 134.22 17.2727C134.203 17.2903 134.179 17.3002 134.154 17.3002H121.849ZM125.617 10.5182C123.395 10.8196 122.154 12.479 121.796 14.6273C121.786 14.694 121.813 14.7273 121.88 14.7273L130.64 14.7288C130.65 14.7288 130.66 14.7248 130.667 14.7176C130.675 14.7103 130.678 14.7006 130.678 14.6904C130.727 11.71 128.453 10.1322 125.617 10.5182Z" fill="black"/>
<path d="M152.623 22.3164C150.728 24.9846 147.776 26.0687 144.553 25.8011C141.335 25.5352 138.666 23.6081 137.471 20.6001C135.536 15.7314 137.243 9.08324 142.912 7.56231C144.674 7.08968 146.454 7.10608 148.255 7.61152C151.037 8.39274 153.077 10.6411 153.883 13.4199C154.729 16.3373 154.418 19.7851 152.623 22.3164ZM144.152 10.8102C140.642 11.7252 139.987 16.5249 141.126 19.3714C142.035 21.6443 144.006 22.7746 146.501 22.3271C148.521 21.9642 149.808 20.2819 150.209 18.298C150.762 15.5621 150.107 11.7806 146.984 10.8564C146.044 10.5775 145.1 10.5621 144.152 10.8102Z" fill="black"/>
<path d="M105.261 7.75635H101.585C101.543 7.75635 101.51 7.79009 101.51 7.8317V25.2493C101.51 25.291 101.543 25.3247 101.585 25.3247H105.261C105.302 25.3247 105.336 25.291 105.336 25.2493V7.8317C105.336 7.79009 105.302 7.75635 105.261 7.75635Z" fill="black"/>
<path d="M22.2107 21.8095C22.2984 15.1661 27.7316 11.7566 33.6569 10.6294C33.6652 10.6278 33.6739 10.6281 33.6821 10.6304C33.6904 10.6326 33.6981 10.6366 33.7047 10.6422C33.7112 10.6477 33.7166 10.6547 33.7203 10.6626C33.724 10.6705 33.7259 10.6791 33.726 10.6878L33.7245 32.107C33.7245 32.1176 33.7203 32.1278 33.7128 32.1352C33.7053 32.1427 33.6951 32.147 33.6845 32.147L28.9233 32.1485C28.8671 32.1485 28.8122 32.1325 28.765 32.1024C25.2864 29.8648 22.1537 26.1524 22.2107 21.8095Z" fill="black"/>
</g>
<defs>
<clipPath id="clip0_3061_299">
<rect width="154.33" height="32.5365" fill="white"/>
</clipPath>
</defs>
</svg>
