<svg width="152" height="36" viewBox="0 0 152 36" fill="none" xmlns="http://www.w3.org/2000/svg">
<g clip-path="url(#clip0_3061_311)">
<mask id="mask0_3061_311" style="mask-type:luminance" maskUnits="userSpaceOnUse" x="0" y="0" width="152" height="36">
<path d="M151.568 0.899414H0.719727V35.4449H151.568V0.899414Z" fill="white"/>
</mask>
<g mask="url(#mask0_3061_311)">
<path d="M52.6312 12.874C52.6312 12.1552 52.076 11.5654 51.299 11.5654C50.5219 11.5654 49.9668 12.1552 49.9668 12.874V23.4894C49.9668 24.2083 50.5219 24.7981 51.299 24.7981C52.0946 24.7981 52.6312 24.2083 52.6312 23.4894V12.874Z" fill="#0D0E14"/>
<path d="M65.7504 11.5654C64.9732 11.5654 64.4366 12.1552 64.4366 12.874V17.4076L64.5105 21.4622L62.9008 17.6656L60.7915 13.3532C60.144 12.0077 59.4039 11.5654 58.3492 11.5654C56.795 11.5654 56.1104 12.5423 56.1104 13.9428V23.4894C56.1104 24.2083 56.647 24.7981 57.4241 24.7981C58.2013 24.7981 58.7378 24.2083 58.7378 23.4894L58.7193 19.0111L58.6637 14.4221L60.3845 18.624L62.5123 23.0102C63.1785 24.4108 63.8816 24.8165 64.9547 24.8165C66.3424 24.8165 67.0639 23.9685 67.0639 22.4021V12.874C67.0639 12.1552 66.5274 11.5654 65.7504 11.5654Z" fill="#0D0E14"/>
<path d="M76.8885 14.2737L79.9044 14.3475C80.6076 14.3659 81.1627 13.8314 81.1627 13.0574C81.1627 12.2833 80.6076 11.7489 79.9044 11.7489L71.1711 11.7305C70.4867 11.7305 69.9131 12.2649 69.9131 13.0389C69.9131 13.813 70.4867 14.3475 71.1711 14.3291L74.2057 14.2737V23.4885C74.2057 24.2074 74.7606 24.7972 75.5379 24.7972C76.3334 24.7972 76.8885 24.2074 76.8885 23.4885V14.2737Z" fill="#0D0E14"/>
<path d="M85.8299 24.6321H92.3242C93.0089 24.6321 93.564 24.116 93.564 23.3972C93.564 22.66 93.0089 22.144 92.3242 22.144L86.681 22.1624V19.0847H91.5656C92.2318 19.0847 92.7683 18.587 92.7683 17.9053C92.7683 17.2048 92.2318 16.7072 91.5656 16.7072L86.681 16.7441V14.2009H92.3242C93.0089 14.2009 93.564 13.6849 93.564 12.9477C93.564 12.2105 93.0089 11.7129 92.3242 11.7129L85.8483 11.7313C84.6641 11.7313 83.998 12.3947 83.998 13.5742V22.7891C83.998 23.9685 84.6641 24.6321 85.8299 24.6321Z" fill="#0D0E14"/>
<path d="M104.142 19.3788C105.9 18.9181 106.936 17.5543 106.936 15.7481C106.936 13.7393 105.622 11.7305 102.477 11.7305H98.4059C97.2218 11.7305 96.5557 12.394 96.5557 13.5735V23.4885C96.5557 24.2074 97.1108 24.7972 97.9249 24.7972C98.7205 24.7972 99.2941 24.2074 99.2941 23.4885L99.2757 20.0237H101.514L103.79 24.1151C104.16 24.7418 104.937 24.9997 105.659 24.6312C106.381 24.2442 106.584 23.47 106.196 22.8436L104.142 19.3788ZM99.2757 14.1816H102.495C103.587 14.1816 104.271 14.8635 104.271 15.8772C104.271 16.8723 103.624 17.6096 102.532 17.6096H99.2757V14.1816Z" fill="#0D0E14"/>
<path d="M115.108 24.871C117.809 24.871 119.548 23.6547 120.14 21.6827C120.455 20.5585 119.789 19.7476 118.789 19.7476C118.179 19.7476 117.772 20.0608 117.532 20.7428C117.162 21.775 116.255 22.42 114.96 22.42C112.906 22.42 112.018 21.0376 112.018 18.1626C112.018 15.3429 112.924 13.9976 114.96 13.9976C116.236 13.9976 116.977 14.532 117.438 15.7668C117.698 16.4672 118.124 16.7804 118.752 16.7804C119.715 16.7804 120.417 16.0064 120.122 14.9375C119.53 12.7628 117.809 11.5464 115.034 11.5464C111.222 11.5464 109.279 13.8685 109.279 18.1626C109.279 22.4936 111.222 24.871 115.108 24.871Z" fill="#0D0E14"/>
<path d="M128.261 24.8347C132.184 24.8347 134.127 22.4387 134.127 18.163C134.127 13.8506 132.128 11.4731 128.261 11.4731C124.376 11.4731 122.433 13.8874 122.415 18.163C122.415 22.4571 124.394 24.8347 128.261 24.8347ZM128.261 22.3651C126.078 22.3651 125.135 20.9829 125.135 18.163C125.135 15.3065 126.096 13.9243 128.243 13.9243C130.408 13.9243 131.426 15.3065 131.407 18.163C131.407 21.0012 130.445 22.3651 128.261 22.3651Z" fill="#0D0E14"/>
<path d="M151.352 13.8685C151.352 12.4127 150.444 11.5464 149.038 11.5464C147.891 11.5464 147.022 12.173 146.596 13.6106L145.171 18.2363L144.228 21.5721L143.321 18.2363L141.804 13.6106C141.378 12.2652 140.638 11.5464 139.343 11.5464C137.918 11.5464 137.03 12.3942 137.03 13.8685V23.4888C137.03 24.2076 137.548 24.7974 138.307 24.7974C139.066 24.7974 139.583 24.2076 139.583 23.4888L139.565 18.8446L139.436 13.8685L140.897 18.9552L142.452 23.4519C142.784 24.4472 143.414 24.7789 144.228 24.7789C144.986 24.7789 145.598 24.5024 145.912 23.4888L147.392 18.9552L148.965 13.8317L148.816 18.8446V23.4888C148.816 24.2076 149.353 24.7974 150.093 24.7974C150.852 24.7974 151.37 24.2076 151.37 23.4888L151.352 13.8685Z" fill="#0D0E14"/>
<path d="M30.6695 19.904C30.6695 20.2112 30.5482 20.5058 30.3324 20.7228C30.1168 20.94 29.8242 21.0621 29.5189 21.0621C29.2137 21.0621 28.9211 20.94 28.7053 20.7228C28.4897 20.5058 28.3684 20.2112 28.3684 19.904V9.55862C28.3684 9.2515 28.4897 8.95696 28.7053 8.7398C28.9211 8.52263 29.2137 8.40062 29.5189 8.40062C29.8242 8.40062 30.1168 8.52263 30.3324 8.7398C30.5482 8.95696 30.6695 9.2515 30.6695 9.55862V19.904ZM30.27 27.0722C30.1179 27.2253 25.8395 30.8141 17.9954 30.8141C10.1515 30.8141 5.90149 27.2444 5.72085 27.0913C5.60701 26.9947 5.51323 26.8764 5.4449 26.7433C5.37657 26.6099 5.33502 26.4646 5.32267 26.3152C5.3103 26.1658 5.32734 26.0155 5.37284 25.8727C5.41831 25.7301 5.49135 25.5976 5.58773 25.4834C5.7863 25.2522 6.06765 25.1094 6.37043 25.086C6.67322 25.0628 6.97287 25.161 7.20406 25.3591C7.27062 25.407 11.0928 28.5268 17.9859 28.5268C24.8791 28.5268 28.7298 25.3878 28.7679 25.3591C29.0016 25.1626 29.3023 25.0658 29.6058 25.089C29.9095 25.1123 30.1921 25.2538 30.3936 25.4834C30.5876 25.7113 30.6845 26.007 30.663 26.3062C30.6417 26.6055 30.5039 26.8842 30.2795 27.0817L30.27 27.0722ZM5.31201 9.55862C5.3292 9.25053 5.46687 8.96182 5.69492 8.75559C5.92295 8.54935 6.22284 8.44239 6.52902 8.45804C6.81284 8.47428 7.08066 8.5957 7.28081 8.79893C7.48096 9.00216 7.59927 9.27279 7.61289 9.55862V19.885C7.61289 20.192 7.49168 20.4865 7.27595 20.7037C7.06019 20.921 6.76756 21.0429 6.46246 21.0429C6.15734 21.0429 5.86472 20.921 5.64896 20.7037C5.43322 20.4865 5.31201 20.192 5.31201 19.885V9.55862ZM11.0833 7.26177C11.1005 6.95367 11.2381 6.66496 11.4662 6.45873C11.6942 6.25251 11.9941 6.14553 12.3003 6.16119C12.5841 6.17742 12.8519 6.29885 13.0521 6.50208C13.2522 6.70531 13.3705 6.97592 13.3841 7.26177V22.5741C13.3841 22.8813 13.2629 23.1759 13.0472 23.393C12.8315 23.6101 12.5388 23.7321 12.2337 23.7321C11.9286 23.7321 11.636 23.6101 11.4202 23.393C11.2045 23.1759 11.0833 22.8813 11.0833 22.5741V7.26177ZM16.8831 6.68755C16.8831 6.38043 17.0042 6.08588 17.22 5.86873C17.4358 5.65156 17.7284 5.52955 18.0334 5.52955C18.3386 5.52955 18.6312 5.65156 18.847 5.86873C19.0627 6.08588 19.1839 6.38043 19.1839 6.68755V23.3398C19.1839 23.6469 19.0627 23.9413 18.847 24.1587C18.6312 24.3758 18.3386 24.4977 18.0334 24.4977C17.7284 24.4977 17.4358 24.3758 17.22 24.1587C17.0042 23.9413 16.8831 23.6469 16.8831 23.3398V6.68755ZM22.5878 7.26177C22.5878 6.95466 22.7089 6.66011 22.9247 6.44293C23.1404 6.22577 23.4331 6.10377 23.7382 6.10377C24.0433 6.10377 24.3359 6.22577 24.5517 6.44293C24.7674 6.66011 24.8886 6.95466 24.8886 7.26177V22.5741C24.8886 22.8813 24.7674 23.1759 24.5517 23.393C24.3359 23.6101 24.0433 23.7321 23.7382 23.7321C23.4331 23.7321 23.1404 23.6101 22.9247 23.393C22.7089 23.1759 22.5878 22.8813 22.5878 22.5741V7.26177ZM30.983 0.945408H5.04578C4.48062 0.941627 3.92027 1.05009 3.39683 1.26459C2.87336 1.47909 2.39708 1.79541 1.99524 2.19544C1.5934 2.59548 1.27389 3.07136 1.05503 3.59586C0.836156 4.12034 0.722215 4.68313 0.719727 5.25201V31.0918C0.722215 31.6605 0.836156 32.2234 1.05503 32.7479C1.27389 33.2723 1.5934 33.7483 1.99524 34.1482C2.39708 34.5483 2.87336 34.8647 3.39683 35.0791C3.92027 35.2936 4.48062 35.402 5.04578 35.3982H30.983C31.5474 35.402 32.1071 35.294 32.6298 35.08C33.1527 34.8662 33.6286 34.5507 34.0303 34.1516C34.4321 33.7527 34.7517 33.2778 34.9711 32.7544C35.1907 32.2311 35.3055 31.6692 35.3092 31.1012V5.25201C35.3067 4.68395 35.1931 4.12194 34.9748 3.59808C34.7566 3.07421 34.4379 2.59876 34.037 2.19884C33.6361 1.79893 33.1611 1.48241 32.6386 1.26735C32.1164 1.05228 31.557 0.942889 30.9926 0.945408" fill="#0D0E14"/>
</g>
</g>
<defs>
<clipPath id="clip0_3061_311">
<rect width="152" height="35.697" fill="white"/>
</clipPath>
</defs>
</svg>
