<svg width="107" height="82" viewBox="0 0 107 82" fill="none" xmlns="http://www.w3.org/2000/svg">
<g clip-path="url(#clip0_3061_263)">
<mask id="mask0_3061_263" style="mask-type:luminance" maskUnits="userSpaceOnUse" x="-1" y="0" width="108" height="82">
<path d="M106.994 0.00146484H-0.00585938V81.1739H106.994V0.00146484Z" fill="white"/>
</mask>
<g mask="url(#mask0_3061_263)">
<path d="M39.9683 0.00146484H68.4509L68.4723 4.40898C68.4729 4.43628 68.4601 4.45408 68.4339 4.46239L54.2493 9.10933C54.2207 9.11882 54.1926 9.11882 54.1645 9.10933L39.9844 4.46416C39.957 4.45467 39.9434 4.43538 39.9434 4.40631L39.9683 0.00146484Z" fill="#0D0E14"/>
<path d="M46.6289 10.9338V28.4517C46.6289 28.46 46.6256 28.468 46.6197 28.4738C46.6139 28.4797 46.6059 28.483 46.5977 28.483H39.9727C39.9643 28.483 39.9564 28.4797 39.9505 28.4738C39.9446 28.468 39.9414 28.46 39.9414 28.4517V8.73008C39.9413 8.72509 39.9424 8.72016 39.9446 8.71567C39.9468 8.71119 39.95 8.7073 39.9541 8.70434C39.958 8.70138 39.9627 8.69942 39.9676 8.69863C39.9727 8.69785 39.9777 8.69825 39.9824 8.69981L46.6075 10.9045C46.6137 10.9065 46.6191 10.9104 46.6229 10.9157C46.6267 10.921 46.6288 10.9273 46.6289 10.9338Z" fill="#0D0E14"/>
<path d="M68.4736 8.71465V28.4541C68.4736 28.4618 68.4706 28.4689 68.4653 28.4743C68.4599 28.4796 68.4526 28.4827 68.4451 28.4827H61.8147C61.807 28.4827 61.7998 28.4796 61.7945 28.4743C61.7891 28.4689 61.7861 28.4618 61.7861 28.4541V10.9211C61.7861 10.9151 61.7881 10.9094 61.7917 10.9046C61.7951 10.8998 61.8 10.8962 61.8057 10.8944L68.4361 8.68794C68.4404 8.68655 68.445 8.68617 68.4494 8.68685C68.4538 8.68753 68.458 8.68922 68.4617 8.69183C68.4653 8.69443 68.4683 8.69784 68.4704 8.70182C68.4724 8.70578 68.4735 8.71018 68.4736 8.71465Z" fill="#0D0E14"/>
<path d="M55.7441 12.8428C56.3403 12.635 56.9238 12.4405 57.4945 12.2589C57.5012 12.2569 57.5085 12.2562 57.5155 12.2575C57.5226 12.2586 57.5293 12.2614 57.5351 12.2656C57.5407 12.2698 57.5454 12.2752 57.5486 12.2814C57.5518 12.2877 57.5534 12.2946 57.5533 12.3016V28.4533C57.5533 28.4729 57.5434 28.4827 57.5239 28.4827H50.8845C50.8786 28.4827 50.8729 28.4803 50.8687 28.476C50.8645 28.4715 50.8622 28.4657 50.8622 28.4596L50.8613 12.3008C50.8612 12.2944 50.8627 12.2881 50.8656 12.2824C50.8685 12.2768 50.8728 12.2719 50.8779 12.2682C50.8831 12.2644 50.8892 12.2619 50.8956 12.2609C50.902 12.2599 50.9086 12.2605 50.9148 12.2625C51.6353 12.5058 52.3679 12.7472 53.1128 12.9869C53.5651 13.1329 54.0258 13.1873 54.4949 13.1499C54.8134 13.1243 55.2299 13.022 55.7441 12.8428Z" fill="#0D0E14"/>
<path d="M36.5052 57.741C34.7764 58.2279 32.7067 57.9894 31.2301 56.8759C30.2094 56.1057 29.5155 55.0812 29.1482 53.8025C28.9805 53.2193 28.8922 52.6262 28.8833 52.0234C28.8673 50.9772 28.8648 49.8873 28.8761 48.7533C28.8833 47.9967 29.0102 47.2652 29.2569 46.5585C29.8347 44.9012 31.0839 43.5937 32.7478 43.0436C33.7792 42.7024 34.8553 42.6345 35.9765 42.8398C38.2396 43.2546 39.9302 44.9306 40.4749 47.1477C40.6087 47.6912 40.6776 48.1937 40.6818 48.6554C40.6908 49.6879 40.6916 50.7835 40.6845 51.9423C40.6803 52.7126 40.5365 53.4813 40.2529 54.2485C39.8161 55.4322 39.0706 56.3712 38.0166 57.0655C37.5731 57.3574 37.0694 57.5826 36.5052 57.741ZM36.8602 46.6056C36.2289 45.8634 35.4094 45.5444 34.4019 45.6489C33.8591 45.7052 33.3848 45.9123 32.9788 46.2701C32.2645 46.9003 31.9711 47.9273 31.9658 48.8752C31.9604 49.9166 31.9598 50.9377 31.964 51.9387C31.9649 52.1889 32.0041 52.4399 32.0452 52.6864C32.2761 54.0766 33.2935 55.1225 34.7621 55.094C35.7174 55.0756 36.4643 54.6909 37.0028 53.9396C37.4468 53.321 37.6012 52.4906 37.602 51.719C37.6027 50.7274 37.6006 49.7875 37.5958 48.8993C37.5913 48.1036 37.3809 47.2179 36.8602 46.6056Z" fill="#0D0E14"/>
<path d="M50.6936 43.2358C52.0632 43.7116 53.0908 44.5735 53.7761 45.8214C54.3016 46.7785 54.5647 47.8505 54.5653 49.0372C54.5653 49.9497 54.5641 50.8537 54.5618 51.7491C54.5593 52.3626 54.4666 52.9714 54.2836 53.5754C53.7788 55.2398 52.7707 56.4427 51.259 57.1838C50.4855 57.5628 49.596 57.7542 48.5902 57.7578C46.8425 57.7638 45.0841 57.7664 43.3151 57.7658C43.2926 57.7653 43.2812 57.754 43.2812 57.732V42.9679C43.2812 42.9479 43.2891 42.9286 43.3031 42.9144C43.3172 42.9002 43.3362 42.8923 43.3561 42.8923C45.1443 42.8887 46.9415 42.8896 48.7481 42.8949C49.3972 42.8967 50.0457 43.0104 50.6936 43.2358ZM46.3459 45.8365L46.3299 54.7583C46.3299 54.7725 46.3354 54.7861 46.3455 54.7961C46.3556 54.8062 46.3691 54.8117 46.3834 54.8117L48.5358 54.8153C49.2982 54.8166 50.0299 54.4961 50.57 53.9244C51.1101 53.3525 51.4144 52.5762 51.416 51.766L51.4212 48.8467C51.422 48.4455 51.3483 48.0481 51.2045 47.6772C51.0608 47.3063 50.8496 46.9691 50.5832 46.685C50.3167 46.4009 50.0002 46.1753 49.6517 46.0211C49.3031 45.867 48.9294 45.7873 48.5519 45.7867L46.3994 45.7831C46.3852 45.7831 46.3716 45.7888 46.3616 45.7988C46.3515 45.8087 46.3459 45.8224 46.3459 45.8365Z" fill="#0D0E14"/>
<path d="M60.4713 51.6996V54.8541C60.4713 54.8618 60.4743 54.8693 60.4799 54.8748C60.4854 54.8802 60.4929 54.8834 60.5007 54.8834L66.729 54.8843C66.7329 54.8843 66.7367 54.885 66.7402 54.8865C66.7438 54.888 66.7471 54.8902 66.7498 54.8929C66.7525 54.8956 66.7548 54.8988 66.7562 54.9024C66.7577 54.906 66.7584 54.9098 66.7584 54.9137L66.7593 57.736C66.7593 57.7438 66.7562 57.7513 66.7507 57.7568C66.7452 57.7622 66.7377 57.7654 66.7299 57.7654H57.3995C57.3916 57.7654 57.3843 57.7622 57.3787 57.7568C57.3732 57.7513 57.3701 57.7438 57.3701 57.736V42.9736C57.3701 42.9659 57.3732 42.9584 57.3787 42.9529C57.3843 42.9474 57.3916 42.9443 57.3995 42.9443H66.7299C66.7377 42.9443 66.7452 42.9474 66.7507 42.9529C66.7562 42.9584 66.7593 42.9659 66.7593 42.9736V45.7667C66.7593 45.7744 66.7562 45.7819 66.7507 45.7875C66.7452 45.7929 66.7377 45.7961 66.7299 45.7961H60.5007C60.4969 45.7961 60.493 45.7968 60.4895 45.7983C60.4859 45.7998 60.4827 45.8019 60.4799 45.8046C60.4772 45.8074 60.475 45.8106 60.4735 45.8142C60.472 45.8177 60.4713 45.8215 60.4713 45.8253V48.767C60.4713 48.7747 60.4743 48.7822 60.4799 48.7878C60.4854 48.7933 60.4929 48.7964 60.5007 48.7964H65.4816C65.4893 48.7964 65.4968 48.7995 65.5024 48.805C65.5079 48.8105 65.511 48.8179 65.511 48.8258V51.641C65.511 51.6487 65.5079 51.6562 65.5024 51.6618C65.4968 51.6672 65.4893 51.6704 65.4816 51.6704H60.5007C60.4969 51.6704 60.493 51.6711 60.4895 51.6726C60.4859 51.6741 60.4827 51.6762 60.4799 51.679C60.4772 51.6817 60.475 51.6849 60.4735 51.6884C60.472 51.692 60.4713 51.6958 60.4713 51.6996Z" fill="#0D0E14"/>
<path d="M78.1253 52.0551C78.1221 52.0564 78.1193 52.0581 78.1169 52.0604C78.1146 52.0627 78.1128 52.0656 78.1115 52.0685C78.1103 52.0716 78.1098 52.0749 78.1101 52.0781C78.1103 52.0813 78.1112 52.0844 78.1128 52.0872L81.0722 57.7336C81.074 57.7371 81.0747 57.7408 81.0746 57.7446C81.0744 57.7484 81.0735 57.7521 81.0716 57.7553C81.0698 57.7585 81.0671 57.7611 81.0639 57.7629C81.0607 57.7647 81.0571 57.7657 81.0535 57.7657H77.7294C77.6931 57.7657 77.6669 57.7496 77.6509 57.7176L75.1417 52.6906C75.1239 52.6551 75.0951 52.6372 75.0553 52.6372H72.9277C72.9115 52.6372 72.8957 52.6436 72.8843 52.6549C72.8727 52.6663 72.8662 52.6817 72.8662 52.6977V57.6998C72.8662 57.7301 72.8511 57.7452 72.8207 57.7452H69.8185C69.7917 57.7452 69.7783 57.7319 69.7783 57.7052V42.9669C69.7783 42.9551 69.7831 42.9438 69.7917 42.9354C69.8002 42.927 69.8118 42.9224 69.8238 42.9224C71.9911 42.9224 74.0604 42.9247 76.0317 42.9295C76.8502 42.9312 77.5751 43.0238 78.2955 43.3335C79.9139 44.0278 80.6424 45.4056 80.7316 47.1198C80.7632 47.7398 80.742 48.3383 80.6683 48.9151C80.4644 50.5017 79.6167 51.5484 78.1253 52.0551ZM72.8297 45.8533L72.8163 49.6805C72.8163 49.6973 72.8229 49.7135 72.8347 49.7255C72.8466 49.7375 72.8627 49.7443 72.8796 49.7445L75.971 49.7552C76.1906 49.7561 76.4083 49.7149 76.6116 49.634C76.8147 49.553 76.9996 49.434 77.1554 49.2836C77.3112 49.1333 77.4351 48.9546 77.5197 48.7577C77.6044 48.5608 77.6485 48.3496 77.6491 48.1362L77.6509 47.4295C77.6523 46.9989 77.4775 46.5853 77.1653 46.2798C76.8529 45.9742 76.4284 45.8015 75.9853 45.7999L72.8939 45.7892C72.8768 45.7892 72.8605 45.796 72.8485 45.8079C72.8364 45.82 72.8297 45.8363 72.8297 45.8533Z" fill="#0D0E14"/>
<path d="M13.6163 47.8475V57.7369C13.6163 57.7558 13.6068 57.7654 13.5878 57.7654H10.7389C10.7271 57.7654 10.7157 57.7606 10.7074 57.7524C10.699 57.744 10.6943 57.7327 10.6943 57.7209V42.9675C10.6943 42.9613 10.6968 42.9554 10.7011 42.9511C10.7055 42.9467 10.7114 42.9443 10.7175 42.9443H14.6596C14.6917 42.9443 14.7131 42.9595 14.7238 42.9897L18.3654 53.3569C18.3903 53.4264 18.4149 53.4264 18.4393 53.3569L22.1237 42.9799C22.1273 42.9695 22.1342 42.9606 22.1433 42.9542C22.1524 42.9478 22.1634 42.9443 22.1746 42.9443H26.0078C26.0233 42.9443 26.031 42.952 26.031 42.9675V57.7209C26.031 57.7327 26.0263 57.744 26.018 57.7524C26.0096 57.7606 25.9983 57.7654 25.9864 57.7654H23.0948C23.0902 57.7654 23.0859 57.7635 23.0827 57.7601C23.0795 57.7568 23.0778 57.7523 23.0778 57.7476C23.0772 54.4526 23.0772 51.1633 23.0778 47.8796C23.0778 47.8653 23.0707 47.8559 23.0564 47.8511C23.053 47.8502 23.0494 47.8507 23.0462 47.8523C23.0431 47.8539 23.0407 47.8567 23.0394 47.8601L19.6226 57.7138C19.6108 57.7482 19.5863 57.7654 19.5495 57.7654H17.2266C17.1945 57.7654 17.1729 57.7499 17.1616 57.7191L13.6502 47.8414C13.6491 47.8373 13.6466 47.8339 13.6431 47.8317C13.6397 47.8294 13.6355 47.8287 13.6313 47.8294C13.6271 47.8302 13.6233 47.8325 13.6206 47.8358C13.6178 47.8392 13.6163 47.8433 13.6163 47.8475Z" fill="#0D0E14"/>
<path d="M86.7327 47.796V57.7369C86.7327 57.7558 86.7228 57.7654 86.7033 57.7654H83.7268L83.7204 57.7641L83.7149 57.7604L83.7112 57.755L83.71 57.7485V43.0173C83.71 42.998 83.7177 42.9794 83.7316 42.9656C83.7455 42.952 83.7643 42.9443 83.7839 42.9443H87.1518C87.1814 42.9443 87.2035 42.9574 87.2177 42.9834C88.8953 46.0055 90.5742 49.0262 92.2547 52.046C92.2887 52.1065 92.3065 52.1397 92.3082 52.1456C92.3487 52.2803 92.3689 52.2773 92.3689 52.1367C92.3713 49.0762 92.3715 46.0257 92.3698 42.9853C92.3698 42.958 92.3837 42.9443 92.4116 42.9443H95.3577C95.3641 42.9443 95.3703 42.9468 95.3748 42.9513C95.3792 42.9559 95.3818 42.9619 95.3818 42.9683V57.7369C95.3818 57.7558 95.3724 57.7654 95.3533 57.7654H92.5027C92.464 57.7654 92.4355 57.7487 92.4171 57.7155L86.7933 47.7799C86.7528 47.7076 86.7327 47.7128 86.7327 47.796Z" fill="#0D0E14"/>
<path d="M55.8005 65.4627C55.8813 65.433 55.9639 65.406 56.0483 65.3816C57.5125 64.9585 58.9484 64.9268 60.356 65.2864C61.0212 65.4568 61.6082 65.7398 62.117 66.1355C62.718 66.6019 63.1302 67.187 63.3538 67.8907C63.5208 68.4159 63.5918 68.9837 63.5668 69.5942C63.5657 69.631 63.5464 69.6494 63.5089 69.6494L60.6931 69.6503C60.661 69.6503 60.6452 69.6343 60.6457 69.6022C60.686 67.7653 58.8741 67.4901 57.4911 67.7741C56.5967 67.9575 56.0394 68.5564 56.3122 69.491C56.3932 69.7675 56.556 69.998 56.8009 70.1826C57.1267 70.4282 57.5062 70.616 57.9396 70.746C58.5892 70.9418 59.2396 71.1376 59.8906 71.3334C60.2722 71.4479 60.6671 71.5912 61.0756 71.7632C61.9538 72.1327 62.776 72.6667 63.2861 73.4259C63.6973 74.0395 63.9057 74.7378 63.9111 75.521C63.914 75.9436 63.8813 76.3462 63.8129 76.7289C63.6222 77.7996 63.0578 78.7538 62.1661 79.3546C61.6121 79.7283 60.9902 79.9835 60.3008 80.1199C58.9893 80.3798 57.6816 80.3665 56.3774 80.08C55.3823 79.8609 54.4059 79.3626 53.7478 78.5641C52.9944 77.6492 52.7724 76.477 52.8286 75.3111C52.8292 75.299 52.8345 75.2877 52.8433 75.2794C52.8521 75.2711 52.8638 75.2666 52.8758 75.2666L55.764 75.2656C55.7936 75.2656 55.8082 75.2805 55.8076 75.3101C55.8047 75.5462 55.8144 75.7638 55.837 75.9626C55.9404 76.8757 56.5637 77.4106 57.4197 77.5789C58.0546 77.7035 58.6996 77.7049 59.3546 77.5833C60.0251 77.4587 60.6342 77.1152 60.7733 76.388C60.8933 75.7638 60.6874 75.2647 60.1554 74.891C59.9034 74.7141 59.6153 74.5572 59.2914 74.42C58.8099 74.2171 58.3641 74.0566 57.9539 73.9385C57.6869 73.8614 57.4313 73.7841 57.1871 73.7062C56.9534 73.6316 56.7192 73.5568 56.4844 73.482C55.6866 73.2293 54.9908 72.8548 54.3969 72.3587C53.1888 71.3494 52.8882 69.7118 53.2342 68.2289C53.5481 66.8823 54.4959 65.9486 55.8005 65.4627Z" fill="#0D0E14"/>
<path d="M47.7264 77.1255H42.2979C42.2915 77.1254 42.2852 77.1274 42.2799 77.131C42.2746 77.1346 42.2706 77.1399 42.2685 77.1461L41.3055 80.0298C41.3035 80.0359 41.2994 80.0412 41.2941 80.0448C41.2888 80.0485 41.2825 80.0504 41.276 80.0503H38.2792C38.2744 80.0502 38.2697 80.0491 38.2654 80.0469C38.2611 80.0447 38.2574 80.0415 38.2547 80.0375C38.2519 80.0336 38.25 80.0292 38.2493 80.0244C38.2487 80.0196 38.2492 80.0148 38.2506 80.0102L43.4749 65.3173C43.477 65.3114 43.4808 65.3062 43.4859 65.3025C43.4911 65.2988 43.4972 65.2969 43.5035 65.2969L46.7509 65.2977C46.7573 65.2977 46.7633 65.2997 46.7685 65.3034C46.7736 65.3071 46.7774 65.3122 46.7794 65.3182L51.895 79.9764C51.8965 79.981 51.8969 79.9858 51.8962 79.9906C51.8956 79.9953 51.8937 79.9998 51.8909 80.0037C51.8882 80.0077 51.8845 80.0108 51.8802 80.0131C51.8759 80.0153 51.8712 80.0164 51.8664 80.0165H48.7446C48.7384 80.0164 48.7322 80.0144 48.7272 80.0107C48.722 80.0072 48.7182 80.002 48.7161 79.996L47.7549 77.1461C47.7528 77.1401 47.749 77.1349 47.744 77.1313C47.7388 77.1276 47.7327 77.1257 47.7264 77.1255ZM43.2387 74.3219C43.2372 74.326 43.2367 74.3304 43.2373 74.3347C43.2381 74.339 43.2397 74.343 43.2422 74.3465C43.2447 74.3501 43.2481 74.3529 43.252 74.3547C43.2559 74.3567 43.2602 74.3577 43.2645 74.3576L46.8454 74.3887C46.8496 74.3887 46.8538 74.3878 46.8576 74.386C46.8614 74.384 46.8648 74.3813 46.8672 74.378C46.8698 74.3745 46.8714 74.3706 46.8721 74.3664C46.8729 74.3622 46.8725 74.3581 46.8713 74.354L45.128 68.93C45.1264 68.9247 45.1231 68.9199 45.1186 68.9165C45.1141 68.9132 45.1086 68.9113 45.1029 68.9111C45.0974 68.9111 45.0919 68.9127 45.0872 68.9161C45.0826 68.9193 45.0791 68.9238 45.0772 68.9291L43.2387 74.3219Z" fill="#0D0E14"/>
<path d="M16.7146 74.9546C16.7053 74.9546 16.6966 74.9584 16.6901 74.9651C16.6834 74.9717 16.6799 74.9808 16.6799 74.9903V79.9896C16.6799 80.0028 16.6745 80.0155 16.665 80.0248C16.6554 80.0342 16.6425 80.0395 16.629 80.0395H13.6589C13.6471 80.0395 13.6357 80.0348 13.6273 80.0264C13.6189 80.0181 13.6143 80.0067 13.6143 79.9949V65.3581C13.6143 65.3485 13.6182 65.3391 13.625 65.3324C13.6318 65.3255 13.6412 65.3217 13.6508 65.3217C15.6762 65.3192 17.7688 65.3192 19.9291 65.3217C21.4128 65.3243 22.9518 65.8316 23.7927 67.1338C24.21 67.78 24.4391 68.5293 24.4802 69.382C24.5033 69.8567 24.5018 70.3349 24.4756 70.8168C24.3865 72.4936 23.6206 73.7807 21.9603 74.3788C21.9525 74.3816 21.9455 74.3859 21.9396 74.3917C21.9336 74.3974 21.929 74.4042 21.9259 74.4119C21.9229 74.4194 21.9215 74.4275 21.9219 74.4356C21.9223 74.4437 21.9245 74.4517 21.9282 74.4589L24.8207 79.9949C24.8404 80.0323 24.8291 80.051 24.7869 80.051H21.4957C21.4642 80.051 21.4414 80.0368 21.4271 80.0083L18.9322 75C18.9173 74.9704 18.8929 74.9555 18.8591 74.9555L16.7146 74.9546ZM16.6504 68.2045L16.6432 72.0566C16.6432 72.0649 16.6465 72.0729 16.6524 72.0787C16.6582 72.0846 16.6662 72.0878 16.6745 72.0878L19.7909 72.0932C20.2259 72.0938 20.6433 71.9239 20.9515 71.6206C21.2596 71.3174 21.4333 70.9056 21.4342 70.4759L21.436 69.803C21.4365 69.5901 21.3944 69.3792 21.3124 69.1823C21.2303 68.9855 21.1098 68.8064 20.9577 68.6556C20.8055 68.5047 20.6248 68.3851 20.4259 68.3032C20.2269 68.2214 20.0135 68.1791 19.798 68.1787L16.6816 68.1734C16.6734 68.1734 16.6654 68.1766 16.6596 68.1825C16.6537 68.1883 16.6504 68.1963 16.6504 68.2045Z" fill="#0D0E14"/>
<path d="M83.5763 75.0001L83.5773 79.9675C83.5773 79.9865 83.5697 80.0049 83.5561 80.0184C83.5425 80.0319 83.5242 80.0396 83.505 80.0396H80.5777C80.5474 80.0396 80.5322 80.0244 80.5322 79.9942V65.3724C80.5322 65.3374 80.5501 65.3199 80.5857 65.3199C82.668 65.3193 84.7753 65.3216 86.9076 65.3271C89.1376 65.3323 90.9719 66.5161 91.3258 68.8223C91.4355 69.5361 91.423 70.3611 91.3562 71.1035C91.3151 71.5562 91.2033 72.0007 91.0209 72.4368C90.6312 73.3651 89.8278 74.0308 88.8693 74.3726C88.8199 74.3904 88.8075 74.4224 88.8319 74.4687L91.7324 80.019C91.734 80.0225 91.7349 80.0261 91.7346 80.0298C91.7345 80.0336 91.7334 80.0372 91.7314 80.0404C91.7295 80.0436 91.7268 80.0463 91.7234 80.0482C91.7202 80.05 91.7166 80.051 91.7129 80.0511H88.3994C88.3649 80.0511 88.3399 80.0354 88.3245 80.0039L85.8359 75.0001C85.821 74.9698 85.7966 74.9547 85.7627 74.9547L83.621 74.9556C83.5912 74.9556 83.5763 74.9705 83.5763 75.0001ZM86.9023 72.0665C87.1793 72.0492 87.4415 71.9585 87.6887 71.7942C88.1426 71.4923 88.2969 71.0037 88.3227 70.4661C88.3429 70.0526 88.3328 69.7352 88.2924 69.5138C88.106 68.4912 87.3695 68.1681 86.403 68.1752C85.5119 68.1824 84.5795 68.1828 83.6058 68.1769C83.5719 68.1769 83.5549 68.1939 83.5549 68.2277L83.5541 72.0496C83.5541 72.0591 83.5579 72.0681 83.5645 72.0747C83.5711 72.0815 83.5803 72.0851 83.5897 72.0851C84.4927 72.084 85.3968 72.084 86.3022 72.0851C86.4978 72.0858 86.6978 72.0795 86.9023 72.0665Z" fill="#0D0E14"/>
<path d="M-0.00585938 68.1776V65.341L11.3183 65.333C11.3492 65.333 11.3647 65.3484 11.3647 65.3792V68.1339C11.3647 68.1642 11.3495 68.1793 11.3192 68.1793H7.26122C7.2315 68.1793 7.21664 68.1942 7.21664 68.2239V80.0188C7.21664 80.0401 7.20594 80.0508 7.18454 80.0508H4.23491C4.21576 80.0508 4.19738 80.0432 4.18384 80.0294C4.17029 80.0157 4.16269 79.9972 4.16269 79.9779V68.2266C4.16269 68.1974 4.14811 68.1829 4.11899 68.1829L-0.00585938 68.1776Z" fill="#0D0E14"/>
<path d="M30.3429 68.2073L30.3438 71.1078C30.3438 71.1155 30.3469 71.1227 30.3522 71.128C30.3576 71.1334 30.3648 71.1364 30.3723 71.1364H35.3212C35.3287 71.1364 35.3359 71.1393 35.3413 71.1447C35.3466 71.15 35.3497 71.1573 35.3497 71.1649V73.9694C35.3497 73.9769 35.3466 73.9842 35.3413 73.9896C35.3359 73.9949 35.3287 73.9979 35.3212 73.9979H30.3723C30.3648 73.9979 30.3576 74.0009 30.3522 74.0062C30.3469 74.0116 30.3438 74.0188 30.3438 74.0263V77.1602C30.3438 77.1677 30.3469 77.175 30.3522 77.1804C30.3576 77.1857 30.3648 77.1887 30.3723 77.1887H36.5695C36.577 77.1887 36.5842 77.1917 36.5897 77.197C36.5949 77.2024 36.598 77.2097 36.598 77.2172V80.0217C36.598 80.0293 36.5949 80.0366 36.5897 80.0418C36.5842 80.0472 36.577 80.0502 36.5695 80.0502H27.3069C27.2992 80.0502 27.292 80.0472 27.2867 80.0418C27.2813 80.0366 27.2783 80.0293 27.2783 80.0217V65.3591C27.2783 65.3515 27.2813 65.3442 27.2867 65.3389C27.292 65.3336 27.2992 65.3306 27.3069 65.3306H36.5695C36.577 65.3306 36.5842 65.3336 36.5897 65.3389C36.5949 65.3442 36.598 65.3515 36.598 65.3591V68.1502C36.598 68.1578 36.5949 68.1651 36.5897 68.1704C36.5842 68.1758 36.577 68.1787 36.5695 68.1787H30.3715C30.3639 68.1787 30.3566 68.1817 30.3513 68.1871C30.3459 68.1924 30.3429 68.1996 30.3429 68.2073Z" fill="#0D0E14"/>
<path d="M73.0265 80.1615C70.512 80.5985 67.928 79.6114 66.882 77.1798C66.514 76.3241 66.3289 75.3861 66.3266 74.3654C66.3206 71.3429 66.3197 68.3416 66.3239 65.3617C66.3239 65.341 66.3346 65.3306 66.356 65.3306H69.3394C69.3722 65.3306 69.3885 65.3469 69.3885 65.3795C69.3856 68.5249 69.3862 71.5754 69.3904 74.531C69.3921 75.7762 69.887 77.0579 71.2226 77.3489C71.5033 77.41 71.7836 77.432 72.0635 77.4148C73.2221 77.3442 73.9562 76.7577 74.266 75.6552C74.381 75.2466 74.4273 74.8292 74.4273 74.3992C74.4249 71.3921 74.4244 68.3775 74.4255 65.3555C74.4255 65.3389 74.4341 65.3306 74.4515 65.3306H77.4536C77.4846 65.3306 77.5 65.3461 77.5 65.3768C77.5024 68.3959 77.5035 71.4138 77.5035 74.4305C77.5035 75.1923 77.3829 75.9346 77.1416 76.6573C76.5111 78.5406 75.0123 79.8162 73.0265 80.1615Z" fill="#0D0E14"/>
<path d="M99.1601 71.6704L102.514 65.3707C102.529 65.344 102.551 65.3306 102.581 65.3306H105.856C105.858 65.3305 105.86 65.3311 105.863 65.3323C105.863 65.3323 105.866 65.3353 105.868 65.3375C105.869 65.3397 105.869 65.3421 105.869 65.3447C105.869 65.3473 105.869 65.3498 105.867 65.352L100.68 74.5345C100.64 74.6034 100.62 74.681 100.62 74.7597V80.0387C100.62 80.0553 100.612 80.0636 100.596 80.0636L97.6086 80.0628C97.5777 80.0628 97.5622 80.0473 97.5622 80.0164V74.6521C97.5622 74.5901 97.5469 74.5296 97.5176 74.4759L92.5047 65.3724C92.4892 65.3446 92.4973 65.3306 92.5288 65.3306H95.7994C95.8126 65.3306 95.8256 65.3341 95.837 65.3409C95.8483 65.3477 95.8575 65.3574 95.8636 65.3688C96.9616 67.4623 98.0434 69.5627 99.1093 71.6704C99.1259 71.7036 99.1429 71.7036 99.1601 71.6704Z" fill="#0D0E14"/>
</g>
</g>
<defs>
<clipPath id="clip0_3061_263">
<rect width="107" height="81.1724" fill="white"/>
</clipPath>
</defs>
</svg>
