<svg width="141" height="36" viewBox="0 0 141 36" fill="none" xmlns="http://www.w3.org/2000/svg">
<g clip-path="url(#clip0_3061_325)">
<mask id="mask0_3061_325" style="mask-type:luminance" maskUnits="userSpaceOnUse" x="-1" y="0" width="141" height="36">
<path d="M139.991 0.00146484H-0.00585938V35.0006H139.991V0.00146484Z" fill="white"/>
</mask>
<g mask="url(#mask0_3061_325)">
<path d="M29.2204 0.00146484H5.85868C2.61775 0.00146484 -0.00585938 2.61822 -0.00585938 5.85069V29.1514C-0.00585938 32.3839 2.61775 35.0006 5.85868 35.0006H29.2204C32.4613 35.0006 35.0849 32.3839 35.0849 29.1514V5.85069C35.0849 2.61822 32.4613 0.00146484 29.2204 0.00146484ZM28.6995 26.804C28.6995 27.8238 27.87 28.6511 26.8476 28.6511H8.23151C7.20907 28.6511 6.37955 27.8238 6.37955 26.804V8.21732C6.37955 7.19755 7.20907 6.37019 8.23151 6.37019H26.8668C27.8893 6.37019 28.7188 7.19755 28.7188 8.21732V26.804H28.6995Z" fill="#0D0E14"/>
<path d="M13.8257 22.2434C13.2276 22.2434 12.7646 21.7624 12.7646 21.1853V13.7775C12.7646 13.181 13.2469 12.7192 13.8257 12.7192H21.2721C21.8508 12.7192 22.3331 13.2002 22.3331 13.7775V21.1853C22.3331 21.7817 21.8508 22.2434 21.2721 22.2434H13.8257Z" fill="#0D0E14"/>
<path d="M44.4023 21.7435H48.222C48.415 23.9178 49.8811 25.5917 52.852 25.5917C55.4949 25.5917 57.1346 24.2833 57.1346 22.3208C57.1346 20.4736 55.8614 19.6463 53.5657 19.1075L50.5949 18.4726C47.3539 17.7606 44.9425 15.7019 44.9425 12.3154C44.9425 8.58276 48.2607 6.04297 52.5819 6.04297C57.1539 6.04297 60.0862 8.42884 60.337 11.9692H56.633C56.1894 10.3144 54.8196 9.33316 52.5819 9.33316C50.2283 9.33316 48.5886 10.6031 48.5886 12.2386C48.5886 13.874 49.9968 14.8553 52.4275 15.3941L55.3598 16.029C58.5814 16.7216 60.7807 18.665 60.7807 22.0706C60.7807 26.3998 57.5204 28.9781 52.852 28.9781C47.624 28.9781 44.711 26.1497 44.4023 21.7435Z" fill="#0D0E14"/>
<path d="M74.4773 35.0001V28.6506L74.728 25.8799H74.4773C73.6092 27.881 71.7572 28.9777 69.2494 28.9777C65.2175 28.9777 62.208 25.7067 62.208 20.6656C62.208 15.6438 65.2175 12.3535 69.2494 12.3535C71.7187 12.3535 73.4741 13.508 74.4773 15.3167H74.728V12.6806H78.0462V35.0193H74.4773V35.0001ZM74.6123 20.6656C74.6123 17.4524 72.6446 15.5668 70.2332 15.5668C67.8218 15.5668 65.8541 17.4332 65.8541 20.6656C65.8541 23.8789 67.8218 25.7645 70.2332 25.7645C72.6446 25.7645 74.6123 23.8789 74.6123 20.6656Z" fill="#0D0E14"/>
<path d="M80.708 22.3204V12.6807H84.277V22.0125C84.277 24.533 85.4923 25.7645 87.5372 25.7645C90.0451 25.7645 91.6656 23.9751 91.6656 21.2044V12.6807H95.2344V28.6698H91.9163V25.3604H91.6656C90.8746 27.4769 89.1576 28.9777 86.4955 28.9777C82.6758 28.9777 80.708 26.5342 80.708 22.3204Z" fill="#0D0E14"/>
<path d="M97.415 24.2063C97.415 21.2046 99.5178 19.4537 103.241 19.2421L107.659 18.9535V17.7028C107.659 16.2021 106.559 15.2977 104.63 15.2977C102.836 15.2977 101.775 16.2021 101.505 17.4912H97.9358C98.3024 14.2394 101.003 12.373 104.63 12.373C108.739 12.373 111.247 14.1241 111.247 17.4912V28.6702H107.929V25.707H107.678C106.926 27.6696 105.363 28.9779 102.354 28.9779C99.4406 28.9779 97.415 27.0347 97.415 24.2063ZM107.659 22.2244V21.3779L104.051 21.628C102.103 21.7434 101.235 22.4745 101.235 23.9176C101.235 25.1298 102.238 26.0149 103.646 26.0149C106.173 26.0149 107.659 24.3794 107.659 22.2244Z" fill="#0D0E14"/>
<path d="M113.89 28.6698V12.6807H117.208V15.7399H117.458C117.922 13.6427 119.522 12.6807 121.915 12.6807H123.535V15.8939H121.49C119.176 15.8939 117.458 17.3947 117.458 20.2424V28.6698H113.89Z" fill="#0D0E14"/>
<path d="M139.874 21.3198H127.701C127.895 24.2636 129.959 25.9184 132.235 25.9184C134.183 25.9184 135.399 25.1295 136.093 23.8211H139.624C138.659 27.0729 135.804 28.9777 132.196 28.9777C127.47 28.9777 124.152 25.4566 124.152 20.6656C124.152 15.8939 127.567 12.3535 132.235 12.3535C136.942 12.3535 140.009 15.5668 140.009 19.5689C139.991 20.3578 139.932 20.7618 139.874 21.3198ZM136.46 18.8569C136.344 16.6443 134.492 15.1435 132.235 15.1435C130.113 15.1435 128.32 16.4903 127.875 18.8569H136.46Z" fill="#0D0E14"/>
</g>
</g>
<defs>
<clipPath id="clip0_3061_325">
<rect width="140.02" height="35.0225" fill="white"/>
</clipPath>
</defs>
</svg>
