<svg width="93" height="39" viewBox="0 0 93 39" fill="none" xmlns="http://www.w3.org/2000/svg">
<g clip-path="url(#clip0_3061_286)">
<mask id="mask0_3061_286" style="mask-type:luminance" maskUnits="userSpaceOnUse" x="0" y="-1" width="93" height="40">
<path d="M92.8376 -0.00341797H0.15332V38.8642H92.8376V-0.00341797Z" fill="white"/>
</mask>
<g mask="url(#mask0_3061_286)">
<path fill-rule="evenodd" clip-rule="evenodd" d="M92.9928 19.9827C92.9928 13.39 89.7897 8.18799 83.6675 8.18799C77.5197 8.18799 73.7998 13.39 73.7998 19.9311C73.7998 27.6827 78.1912 31.5971 84.4942 31.5971C87.5682 31.5971 89.893 30.9018 91.6496 29.9232V24.7726C89.893 25.6483 87.8781 26.1891 85.3208 26.1891C82.8151 26.1891 80.5936 25.3134 80.3095 22.2747H92.9412C92.9412 21.9399 92.9928 20.6008 92.9928 19.9827ZM80.2319 17.5363C80.2319 14.6262 82.0144 13.4157 83.6418 13.4157C85.2175 13.4157 86.8965 14.6262 86.8965 17.5363H80.2319Z" fill="#0D0E14"/>
<path fill-rule="evenodd" clip-rule="evenodd" d="M63.8279 8.18799C61.2965 8.18799 59.6691 9.37261 58.7649 10.1967L58.4292 8.60003H52.7461V38.6276L59.2041 37.2628L59.2299 29.9747C60.1598 30.6443 61.529 31.5971 63.8021 31.5971C68.426 31.5971 72.6366 27.8887 72.6366 19.7251C72.6107 12.2569 68.3485 8.18799 63.8279 8.18799ZM62.2781 25.9316C60.754 25.9316 59.8498 25.3908 59.2299 24.7212L59.2041 15.167C59.8757 14.4202 60.8056 13.9051 62.2781 13.9051C64.6288 13.9051 66.2562 16.5318 66.2562 19.9054C66.2562 23.3563 64.6545 25.9316 62.2781 25.9316Z" fill="#0D0E14"/>
<path fill-rule="evenodd" clip-rule="evenodd" d="M43.8604 6.6697L50.3442 5.27905V0.0512695L43.8604 1.41616V6.6697Z" fill="#0D0E14"/>
<path d="M50.3442 8.62598H43.8604V31.1595H50.3442V8.62598Z" fill="#0D0E14"/>
<path fill-rule="evenodd" clip-rule="evenodd" d="M36.912 10.5317L36.4986 8.62606H30.9189V31.1597H37.3769V15.8882C38.901 13.9054 41.4842 14.2659 42.2849 14.5491V8.62606C41.4583 8.31702 38.436 7.75047 36.912 10.5317Z" fill="#0D0E14"/>
<path fill-rule="evenodd" clip-rule="evenodd" d="M23.9967 3.03857L17.6937 4.37771L17.668 25.0056C17.668 28.817 20.5353 31.624 24.3583 31.624C26.4766 31.624 28.0264 31.2377 28.8789 30.7742V25.5463C28.0523 25.8811 23.9709 27.0658 23.9709 23.2544V14.1122H28.8789V8.6269H23.9709L23.9967 3.03857Z" fill="#0D0E14"/>
<path fill-rule="evenodd" clip-rule="evenodd" d="M6.53348 15.167C6.53348 14.1625 7.36009 13.7763 8.72917 13.7763C10.6924 13.7763 13.1722 14.3687 15.1354 15.4245V9.37261C12.9914 8.52277 10.8732 8.18799 8.72917 8.18799C3.48533 8.18799 -0.00195312 10.9178 -0.00195312 15.4761C-0.00195312 22.5838 9.8141 21.4507 9.8141 24.5152C9.8141 25.6997 8.78083 26.0861 7.33426 26.0861C5.19022 26.0861 2.45206 25.2105 0.282194 24.0258V30.1549C2.68454 31.1851 5.11273 31.6229 7.33426 31.6229C12.7073 31.6229 16.4011 28.9704 16.4011 24.3606C16.3754 16.6864 6.53348 18.0512 6.53348 15.167Z" fill="#0D0E14"/>
</g>
</g>
<defs>
<clipPath id="clip0_3061_286">
<rect width="92.99" height="38.87" fill="white"/>
</clipPath>
</defs>
</svg>
