<svg width="160" height="32" viewBox="0 0 160 32" fill="none" xmlns="http://www.w3.org/2000/svg">
<g clip-path="url(#clip0_3061_342)">
<mask id="mask0_3061_342" style="mask-type:luminance" maskUnits="userSpaceOnUse" x="-1" y="0" width="161" height="33">
<path d="M159.994 0.00146484H-0.00585938V32.0015H159.994V0.00146484Z" fill="white"/>
</mask>
<g mask="url(#mask0_3061_342)">
<path d="M86.908 13.1932C86.343 13.1932 85.4456 13.3238 84.4153 13.7157V8.49121H82.2549L82.3214 22.7279C83.6176 23.1524 84.8141 23.381 86.0772 23.381C89.6667 23.381 91.6941 21.4871 91.6941 18.2871C91.7273 15.1851 89.7996 13.1932 86.908 13.1932ZM86.3097 21.4545C85.7116 21.4545 85.08 21.3238 84.4153 21.0953V15.6422C84.9471 15.4137 85.7116 15.1198 86.4759 15.1198C88.2708 15.1198 89.434 16.2953 89.434 18.2871C89.4672 20.3116 88.3039 21.4545 86.3097 21.4545Z" fill="#0D0E14"/>
<path d="M102.096 6.4668H99.9688V25.177H102.096V6.4668Z" fill="#0D0E14"/>
<path d="M115.656 13.2256C112.732 13.2256 110.838 15.2827 110.738 18.1889C110.638 20.8665 112.233 23.1195 115.524 23.446C117.185 23.6094 118.515 23.3481 119.779 22.7276V20.7359C118.814 21.3236 117.02 21.6175 115.79 21.5195C114.261 21.3889 113.164 20.5399 112.998 18.744H120.343C120.476 15.446 118.715 13.2256 115.656 13.2256ZM113.131 17.1767C113.563 15.8705 114.759 15.0868 116.022 15.1522C117.252 15.2175 117.95 15.9032 118.016 17.1767H113.131Z" fill="#0D0E14"/>
<path d="M148.562 19.5938V13.4224H146.4V19.855C146.4 22.0101 148.096 23.3163 150.821 23.3163C153.514 23.3163 155.242 22.0101 155.242 19.855V13.4224H153.082V19.5938C153.082 21.0958 152.184 21.7816 150.821 21.7816C149.459 21.7816 148.562 21.0958 148.562 19.5938Z" fill="#0D0E14"/>
<path d="M69.7905 13.1611V13.8795C69.0593 13.4224 68.2617 13.2264 67.2978 13.2264C64.4395 13.2264 62.4785 15.2183 62.4785 18.3203C62.4785 21.553 64.5059 23.4468 68.0955 23.4142C69.4582 23.4142 70.9538 23.153 71.8512 22.7611L71.9177 13.1938H69.7905V13.1611ZM69.7574 21.2264C68.9929 21.4224 68.3946 21.455 67.9293 21.455C65.9351 21.4876 64.7719 20.3121 64.7719 18.3203C64.7719 16.3284 65.9351 15.153 67.7299 15.153C68.4611 15.153 69.1258 15.3816 69.7905 15.8387L69.7574 21.2264Z" fill="#0D0E14"/>
<path d="M135.931 13.1611V13.8795C135.199 13.4224 134.402 13.2264 133.438 13.2264C130.58 13.2264 128.619 15.2183 128.619 18.3203C128.619 21.553 130.646 23.4468 134.236 23.4142C135.598 23.4142 137.094 23.153 137.991 22.7611L138.058 13.1938H135.931V13.1611ZM135.864 21.2264C135.1 21.4224 134.435 21.455 134.036 21.455C132.042 21.455 130.878 20.3121 130.878 18.3203C130.878 16.3284 132.042 15.153 133.837 15.153C134.568 15.153 135.232 15.3816 135.898 15.8387L135.864 21.2264Z" fill="#0D0E14"/>
<path d="M46.8906 15.0868H41.1406V17.0135H46.8906V23.446H49.0177V17.0135H54.7343V15.0868H49.0177V9.14404H46.8906V15.0868Z" fill="#0D0E14"/>
<path d="M158.731 13.3237C158.032 13.3237 157.468 13.8788 157.468 14.5645C157.468 15.2829 158.032 15.8053 158.731 15.8053C159.429 15.8053 159.993 15.2502 159.993 14.5645C159.993 13.8788 159.429 13.3237 158.731 13.3237ZM158.731 15.642C158.166 15.642 157.701 15.1849 157.701 14.5645C157.701 13.9768 158.166 13.5196 158.731 13.5196C159.296 13.5196 159.761 14.0094 159.761 14.5972C159.761 15.1849 159.329 15.642 158.731 15.642Z" fill="#0D0E14"/>
<path d="M159.197 14.957C159.163 14.7611 159.096 14.6305 158.963 14.6305C159.129 14.5978 159.23 14.4672 159.23 14.304C159.23 14.1734 159.197 14.0754 159.096 14.0101C158.997 13.9448 158.864 13.9121 158.664 13.9121C158.498 13.9121 158.399 13.9121 158.265 13.9448V15.3489H158.498V14.6958H158.664C158.831 14.6958 158.93 14.7611 158.963 14.957C158.997 15.1529 159.03 15.2835 159.063 15.3162H159.296C159.296 15.251 159.23 15.1856 159.197 14.957ZM158.664 14.5326H158.498V14.0427C158.531 14.0427 158.598 14.0427 158.664 14.0427C158.93 14.0427 158.997 14.1734 158.997 14.304C158.997 14.4672 158.864 14.5326 158.664 14.5326Z" fill="#0D0E14"/>
<path d="M21.8303 16.9153H17.2769V21.8132H15.4821V16.9153H10.8955V15.2173H15.4821V10.3193H17.2769V15.2173H21.8303V16.9153Z" fill="#0D0E14"/>
<path d="M12.6904 22.9565H8.60237V18.5483H7.07349V22.9565H2.91895V24.2626H7.07349V28.6055H8.60237V24.2626H12.6904V22.9565Z" fill="#0D0E14"/>
<path d="M30.1397 7.51224H26.0184V3.13672H24.4895V7.51224H20.4014V8.88367H24.4895V13.2265H26.0184V8.88367H30.1397V7.51224Z" fill="#0D0E14"/>
<path d="M19.8692 27.7237H17.1106V24.687H15.7812V27.7237H12.9561V28.8992H15.7812V32.0013H17.1106V28.8992H19.8692V27.7237Z" fill="#0D0E14"/>
<path d="M12.6572 7.47958H8.50272V3.13672H7.00709V7.47958H2.85254V8.7857H7.00709V13.2265H8.50272V8.7857H12.6572V7.47958Z" fill="#0D0E14"/>
<path d="M33.2969 15.4791H30.5384V12.4424H29.1757V15.4791H26.3838V16.6546H29.1757V19.6914H30.5384V16.6546H33.2969V15.4791Z" fill="#0D0E14"/>
<path d="M29.874 22.9565H25.7859V18.5483H24.2571V22.9565H20.1357V24.2626H24.2571V28.6055H25.7859V24.2626H29.874V22.9565Z" fill="#0D0E14"/>
<path d="M19.6705 3.0382H16.912V0.00146484H15.9149V3.0382H13.1562V3.95248H15.9149V6.92391H16.912V3.95248H19.6705V3.0382Z" fill="#0D0E14"/>
<path d="M6.50847 15.6101H3.74985V12.6387H2.75276V15.6101H-0.00585938V16.5244H2.75276V19.4958H3.74985V16.5244H6.50847V15.6101Z" fill="#0D0E14"/>
</g>
</g>
<defs>
<clipPath id="clip0_3061_342">
<rect width="160" height="32" fill="white"/>
</clipPath>
</defs>
</svg>
